<svg xmlns="http://www.w3.org/2000/svg" xmlns:xlink="http://www.w3.org/1999/xlink" viewBox="0 0 191.79 185.37"><defs><style>.cls-1,.cls-18,.cls-20{fill:none;}.cls-2{clip-path:url(#clip-path);}.cls-3{fill:#213a8e;}.cls-4{clip-path:url(#clip-path-4);}.cls-5{fill:url(#Degradado_sin_nombre_2);}.cls-6{clip-path:url(#clip-path-5);}.cls-7{fill:url(#Degradado_sin_nombre_8);}.cls-8{clip-path:url(#clip-path-6);}.cls-9{fill:url(#Degradado_sin_nombre_8-2);}.cls-10{clip-path:url(#clip-path-7);}.cls-11{fill:url(#Degradado_sin_nombre_8-3);}.cls-12{clip-path:url(#clip-path-8);}.cls-13{fill:url(#Degradado_sin_nombre_8-4);}.cls-14{clip-path:url(#clip-path-9);}.cls-15{fill:url(#Degradado_sin_nombre_8-5);}.cls-16{clip-path:url(#clip-path-10);}.cls-17{fill:url(#Degradado_sin_nombre_8-6);}.cls-18{stroke:#00ace6;stroke-linecap:round;stroke-width:0.17px;}.cls-19{fill:#fff;}.cls-20{stroke:#213a8e;stroke-width:0.05px;}</style><clipPath id="clip-path"><rect class="cls-1" x="25.26" y="39.46" width="141.92" height="123.37"/></clipPath><clipPath id="clip-path-4"><path class="cls-1" d="M96.51,145.91c-29.3-.47-53.33-24.69-53.67-54.08A51.39,51.39,0,0,1,95.28,39.46c29.3.47,53.33,24.69,53.67,54.08A51.39,51.39,0,0,1,96.51,145.91Z"/></clipPath><linearGradient id="Degradado_sin_nombre_2" x1="-55.08" y1="952.69" x2="-54.08" y2="952.69" gradientTransform="matrix(-45.59, 95.01, 98.95, 43.8, -96659.1, -36449.75)" gradientUnits="userSpaceOnUse"><stop offset="0" stop-color="#edf3f8"/><stop offset="0.81" stop-color="#0092d5"/><stop offset="1" stop-color="#213a8e"/></linearGradient><clipPath id="clip-path-5"><path class="cls-1" d="M83.67,144.13C37,95.26,71.37,45,71.37,45S35.81,88.71,86.75,144.86C84.74,144.41,84.8,144.47,83.67,144.13Z"/></clipPath><linearGradient id="Degradado_sin_nombre_8" x1="-52.68" y1="970.81" x2="-51.68" y2="970.81" gradientTransform="matrix(27.16, 1.55, -0.23, -30.48, 1708.63, 29763.63)" gradientUnits="userSpaceOnUse"><stop offset="0" stop-color="#ecf3f8"/><stop offset="0.5" stop-color="#0092d5"/><stop offset="1" stop-color="#283c8f"/></linearGradient><clipPath id="clip-path-6"><path class="cls-1" d="M117.66,141.85c40.28-58.62-12.49-100.18-12.49-100.18s50.46,36.12,8.74,101.6C115.77,142.58,117.66,141.85,117.66,141.85Z"/></clipPath><linearGradient id="Degradado_sin_nombre_8-2" x1="-53.39" y1="970.09" x2="-52.39" y2="970.09" gradientTransform="matrix(-31.6, 0, 0.01, -31.59, -1562.41, 30733.47)" xlink:href="#Degradado_sin_nombre_8"/><clipPath id="clip-path-7"><path class="cls-1" d="M50.8,119.42c67.2,20.68,97.09-35.61,97.09-35.61S115,140.06,48.7,115.69A18.54,18.54,0,0,0,50.8,119.42Z"/></clipPath><linearGradient id="Degradado_sin_nombre_8-3" x1="-30.37" y1="958.55" x2="-29.37" y2="958.55" gradientTransform="matrix(-6.26, -22.32, 22.29, -6.23, -21453.27, 5410.19)" xlink:href="#Degradado_sin_nombre_8"/><clipPath id="clip-path-8"><path class="cls-1" d="M137.87,61.35c-63.2-26.09-95.46,26.3-95.46,26.3s35.9-52.24,98.49-21.86A15.92,15.92,0,0,0,137.87,61.35Z"/></clipPath><linearGradient id="Degradado_sin_nombre_8-4" x1="-72.03" y1="952.64" x2="-71.03" y2="952.64" gradientTransform="matrix(4.63, 22.66, -21.96, 4.04, 21341.63, -2159.72)" xlink:href="#Degradado_sin_nombre_8"/><clipPath id="clip-path-9"><path class="cls-1" d="M66.34,136c48.5,13.54,79.43-23.77,79.43-23.77S111,150.66,61.3,132A41.07,41.07,0,0,0,66.34,136Z"/></clipPath><linearGradient id="Degradado_sin_nombre_8-5" x1="-30.04" y1="954.4" x2="-29.04" y2="954.4" gradientTransform="matrix(-1.63, -23.09, 22.8, -1.44, -21701.25, 819.86)" xlink:href="#Degradado_sin_nombre_8"/><clipPath id="clip-path-10"><path class="cls-1" d="M111.89,42.35C72.09,38.39,48,68.6,48,68.6s29.55-32.49,70.89-23.25C118.85,45.35,112.5,42.31,111.89,42.35Z"/></clipPath><linearGradient id="Degradado_sin_nombre_8-6" x1="-72.82" y1="955.31" x2="-71.82" y2="955.31" gradientTransform="matrix(1.89, 22.28, -22, 1.71, 21237.5, 35.66)" xlink:href="#Degradado_sin_nombre_8"/></defs><title>Recurso 16</title><g id="Capa_2" data-name="Capa 2"><g id="Capa_1-2" data-name="Capa 1"><g class="cls-2"><g class="cls-2"><g class="cls-2"><path class="cls-3" d="M25.26,162.72l1.08-6.25h1.78a4.05,4.05,0,0,1,1,.09,1.29,1.29,0,0,1,.73.51,1.58,1.58,0,0,1,.25.91,1.63,1.63,0,0,1-.25.92,1.52,1.52,0,0,1-.74.56,1.18,1.18,0,0,1,.61.46,1.33,1.33,0,0,1,.23.78,2.19,2.19,0,0,1-.28,1.1,1.67,1.67,0,0,1-.73.71,3,3,0,0,1-1.27.22Zm1.23-1h1a2.71,2.71,0,0,0,.84-.09.79.79,0,0,0,.38-.31.92.92,0,0,0,.15-.52.71.71,0,0,0-.2-.53.89.89,0,0,0-.63-.19H26.77ZM27,159h.82a2.49,2.49,0,0,0,.77-.08.72.72,0,0,0,.37-.29.86.86,0,0,0,.13-.48.65.65,0,0,0-.1-.37.5.5,0,0,0-.25-.2,2.71,2.71,0,0,0-.66,0h-.83Z"/><path class="cls-3" d="M31.42,157.5H32l-.55,3.2a3.82,3.82,0,0,0-.07.59.88.88,0,0,0,.27.66,1,1,0,0,0,.7.26,1.11,1.11,0,0,0,.92-.45,3.46,3.46,0,0,0,.45-1.4l.49-2.87h.58l-.53,3.06a4.21,4.21,0,0,1-.41,1.34,1.82,1.82,0,0,1-.63.68,1.62,1.62,0,0,1-.84.23,1.55,1.55,0,0,1-1.14-.41,1.46,1.46,0,0,1-.42-1.1,6.05,6.05,0,0,1,.12-.94Z"/><path class="cls-3" d="M35,161l.57-.06v.18a1.28,1.28,0,0,0,.15.62.8.8,0,0,0,.36.34,1.34,1.34,0,0,0,.61.13,1.13,1.13,0,0,0,.78-.26.82.82,0,0,0,.29-.64.72.72,0,0,0-.16-.47,3,3,0,0,0-.79-.52,5.55,5.55,0,0,1-.65-.38,1.54,1.54,0,0,1-.46-.51A1.45,1.45,0,0,1,36,157.8a1.54,1.54,0,0,1,1.11-.38,1.76,1.76,0,0,1,.83.18,1.35,1.35,0,0,1,.55.53,1.46,1.46,0,0,1,.2.75V159l-.56.05v-.12a.91.91,0,0,0-.13-.47.86.86,0,0,0-.36-.34A1.2,1.2,0,0,0,37,158a1,1,0,0,0-.69.21.71.71,0,0,0-.25.56.62.62,0,0,0,.19.49,5.55,5.55,0,0,0,.92.56,3.59,3.59,0,0,1,.73.46,1.26,1.26,0,0,1,.29.43,1.46,1.46,0,0,1,.11.56,1.43,1.43,0,0,1-.46,1.09,1.7,1.7,0,0,1-1.21.44,1.65,1.65,0,0,1-1.23-.43A1.87,1.87,0,0,1,35,161Z"/><polygon class="cls-3" points="38.91 162.72 39.81 157.5 40.39 157.5 39.49 162.72 38.91 162.72"/><path class="cls-3" d="M40.59,162.72l.9-5.21h.57l.72,2c.21.57.38,1.06.5,1.44s.18.61.28,1c.05-.45.12-.9.2-1.36l.54-3.06h.57L44,162.72h-.57l-1.07-3c-.18-.54-.33-1-.43-1.41q0,.51-.17,1.25l-.55,3.17Z"/><polygon class="cls-3" points="44.95 162.72 45.85 157.5 48.96 157.5 48.86 158.1 46.33 158.1 46.05 159.72 48.51 159.72 48.41 160.31 45.95 160.31 45.63 162.13 48.34 162.13 48.24 162.72 44.95 162.72"/><path class="cls-3" d="M49.12,161l.57-.06v.18a1.3,1.3,0,0,0,.14.62.8.8,0,0,0,.37.34,1.34,1.34,0,0,0,.61.13,1.14,1.14,0,0,0,.78-.26.82.82,0,0,0,.29-.64.72.72,0,0,0-.16-.47,2.91,2.91,0,0,0-.79-.52,6,6,0,0,1-.66-.38,1.55,1.55,0,0,1-.46-.51,1.44,1.44,0,0,1,.26-1.64,1.54,1.54,0,0,1,1.11-.38,1.77,1.77,0,0,1,.83.18,1.35,1.35,0,0,1,.55.53,1.47,1.47,0,0,1,.2.75V159l-.56.05v-.12a.92.92,0,0,0-.13-.47.88.88,0,0,0-.37-.34,1.21,1.21,0,0,0-.55-.12,1,1,0,0,0-.69.21.71.71,0,0,0-.25.56.63.63,0,0,0,.19.49,5.45,5.45,0,0,0,.92.56,3.6,3.6,0,0,1,.73.46,1.24,1.24,0,0,1,.29.43,1.53,1.53,0,0,1-.36,1.65,1.7,1.7,0,0,1-1.22.44,1.65,1.65,0,0,1-1.23-.43A1.87,1.87,0,0,1,49.12,161Z"/><path class="cls-3" d="M53.15,161l.57-.06v.18a1.3,1.3,0,0,0,.14.62.81.81,0,0,0,.37.34,1.34,1.34,0,0,0,.61.13,1.13,1.13,0,0,0,.78-.26.83.83,0,0,0,.29-.64.72.72,0,0,0-.16-.47,3,3,0,0,0-.79-.52,5.73,5.73,0,0,1-.66-.38,1.53,1.53,0,0,1-.46-.51,1.45,1.45,0,0,1,.25-1.64,1.54,1.54,0,0,1,1.11-.38,1.77,1.77,0,0,1,.83.18,1.36,1.36,0,0,1,.55.53,1.46,1.46,0,0,1,.2.75V159l-.56.05v-.12a.92.92,0,0,0-.13-.47.87.87,0,0,0-.36-.34,1.21,1.21,0,0,0-.55-.12,1,1,0,0,0-.69.21.7.7,0,0,0-.25.56.63.63,0,0,0,.19.49,5.62,5.62,0,0,0,.92.56,3.56,3.56,0,0,1,.73.46,1.24,1.24,0,0,1,.29.43,1.45,1.45,0,0,1,.1.56,1.43,1.43,0,0,1-.46,1.09,1.7,1.7,0,0,1-1.21.44,1.65,1.65,0,0,1-1.23-.43A1.87,1.87,0,0,1,53.15,161Z"/><path class="cls-3" d="M62.13,161.34h-2l-.63,1.38H58.33l2.94-6.25h1.21l.81,6.25h-1Zm-.13-1-.3-2.5-1.14,2.5Z"/><polygon class="cls-3" points="63.87 162.72 64.77 157.5 65.35 157.5 64.55 162.13 66.84 162.13 66.74 162.72 63.87 162.72"/><polygon class="cls-3" points="67.23 162.72 68.13 157.5 68.71 157.5 67.91 162.13 70.2 162.13 70.1 162.72 67.23 162.72"/><polygon class="cls-3" points="70.69 162.72 71.59 157.5 72.17 157.5 71.27 162.72 70.69 162.72"/><path class="cls-3" d="M72,162.72l2.45-5.21h.68l.7,5.21h-.56l-.2-1.5H73.29l-.69,1.5Zm1.57-2H75l-.17-1.31q-.1-.78-.12-1.3a9.53,9.53,0,0,1-.43,1.06Z"/><path class="cls-3" d="M76.4,162.72l.9-5.21h.57l.72,2c.21.57.38,1.06.5,1.44s.18.61.28,1q.08-.67.2-1.36l.54-3.06h.57l-.91,5.21h-.57l-1.07-3c-.18-.54-.33-1-.43-1.41q0,.51-.17,1.25L77,162.72Z"/><path class="cls-3" d="M84.11,160.87l.58.1a2.84,2.84,0,0,1-.8,1.37,1.73,1.73,0,0,1-1.15.45,1.54,1.54,0,0,1-1.24-.57,2.54,2.54,0,0,1-.47-1.67,3.84,3.84,0,0,1,.59-2.18,1.93,1.93,0,0,1,1.66-1,1.51,1.51,0,0,1,1.1.43,1.85,1.85,0,0,1,.51,1.21l-.54.05q-.17-1.12-1-1.12a1.41,1.41,0,0,0-1.23.77,3.41,3.41,0,0,0-.47,1.82,1.92,1.92,0,0,0,.33,1.23,1,1,0,0,0,.84.41,1.08,1.08,0,0,0,.77-.31A2.08,2.08,0,0,0,84.11,160.87Z"/><polygon class="cls-3" points="85.13 162.72 86.03 157.5 89.13 157.5 89.03 158.1 86.5 158.1 86.22 159.72 88.68 159.72 88.58 160.31 86.12 160.31 85.81 162.13 88.52 162.13 88.42 162.72 85.13 162.72"/><polygon class="cls-3" points="90.79 162.72 91.51 158.54 93.73 158.54 93.65 159.01 91.9 159.01 91.66 160.36 93.46 160.36 93.38 160.83 91.58 160.83 91.25 162.72 90.79 162.72"/><path class="cls-3" d="M93.95,161a2.86,2.86,0,0,1,.58-1.86,1.56,1.56,0,0,1,1.26-.64,1.31,1.31,0,0,1,1,.5,2.06,2.06,0,0,1,.42,1.38,3,3,0,0,1-.27,1.28,2.14,2.14,0,0,1-.69.87,1.52,1.52,0,0,1-.88.29,1.28,1.28,0,0,1-.72-.21,1.51,1.51,0,0,1-.53-.64A2.23,2.23,0,0,1,93.95,161Zm.46,0a1.45,1.45,0,0,0,.3,1,.92.92,0,0,0,.72.36,1,1,0,0,0,.62-.23,1.73,1.73,0,0,0,.52-.72,2.74,2.74,0,0,0,.21-1.08,1.52,1.52,0,0,0-.3-1,.9.9,0,0,0-.72-.36,1.13,1.13,0,0,0-.88.48A2.43,2.43,0,0,0,94.41,161Z"/><path class="cls-3" d="M97.51,162.72l.73-4.17h1.44a1.63,1.63,0,0,1,.67.1.64.64,0,0,1,.31.29,1.33,1.33,0,0,1,.14.62,1.24,1.24,0,0,1-.29.87,1.45,1.45,0,0,1-.87.42,1.45,1.45,0,0,1,.3.35,3.86,3.86,0,0,1,.33.73l.26.79H100l-.25-.78a3.72,3.72,0,0,0-.31-.75.62.62,0,0,0-.23-.26.86.86,0,0,0-.39-.07h-.53L98,162.72Zm.87-2.31H99a4.23,4.23,0,0,0,.71,0,.78.78,0,0,0,.33-.15.81.81,0,0,0,.22-.29.88.88,0,0,0,.08-.39.68.68,0,0,0-.07-.32.4.4,0,0,0-.17-.18,1,1,0,0,0-.37,0H98.62Z"/><path class="cls-3" d="M102.9,160.67l1,0a2,2,0,0,0,.12.7.68.68,0,0,0,.32.31,1.34,1.34,0,0,0,.6.11,1.11,1.11,0,0,0,.74-.21.7.7,0,0,0,.25-.56.66.66,0,0,0-.14-.42,2.75,2.75,0,0,0-.74-.48,5.68,5.68,0,0,1-1-.62,1.47,1.47,0,0,1-.38-.54,1.84,1.84,0,0,1-.14-.73,1.81,1.81,0,0,1,.5-1.33,1.83,1.83,0,0,1,1.35-.5,1.93,1.93,0,0,1,1.39.49,2,2,0,0,1,.57,1.4l-1,0a.88.88,0,0,0-.95-.93.94.94,0,0,0-.63.18.61.61,0,0,0-.2.48.58.58,0,0,0,.19.46,3.78,3.78,0,0,0,.76.48,5.55,5.55,0,0,1,1,.6,1.42,1.42,0,0,1,.37.53,1.84,1.84,0,0,1,.13.71,2,2,0,0,1-.57,1.45,2,2,0,0,1-1.49.56,2.28,2.28,0,0,1-1.19-.3,1.51,1.51,0,0,1-.67-.79A3,3,0,0,1,102.9,160.67Z"/><polygon class="cls-3" points="107.57 162.72 108.47 157.5 111.58 157.5 111.48 158.1 108.95 158.1 108.66 159.72 111.13 159.72 111.03 160.31 108.56 160.31 108.25 162.13 110.96 162.13 110.86 162.72 107.57 162.72"/><path class="cls-3" d="M114.94,160.87l.58.1a2.85,2.85,0,0,1-.8,1.37,1.73,1.73,0,0,1-1.15.45,1.54,1.54,0,0,1-1.24-.57,2.54,2.54,0,0,1-.47-1.67,3.83,3.83,0,0,1,.59-2.18,1.93,1.93,0,0,1,1.66-1,1.51,1.51,0,0,1,1.09.43,1.85,1.85,0,0,1,.51,1.21l-.54.05q-.17-1.12-1-1.12a1.4,1.4,0,0,0-1.23.77,3.4,3.4,0,0,0-.47,1.82,1.93,1.93,0,0,0,.33,1.23,1,1,0,0,0,.84.41,1.08,1.08,0,0,0,.77-.31A2.1,2.1,0,0,0,114.94,160.87Z"/><path class="cls-3" d="M116.87,157.5h.58l-.55,3.2a3.79,3.79,0,0,0-.07.59.88.88,0,0,0,.27.66,1,1,0,0,0,.7.26,1.11,1.11,0,0,0,.92-.45,3.47,3.47,0,0,0,.45-1.4l.49-2.87h.58l-.53,3.06a4.17,4.17,0,0,1-.41,1.34,1.8,1.8,0,0,1-.63.68,1.62,1.62,0,0,1-.84.23,1.55,1.55,0,0,1-1.14-.41,1.46,1.46,0,0,1-.42-1.1,6.29,6.29,0,0,1,.12-.94Z"/><path class="cls-3" d="M120.33,162.72l.9-5.21H123a2.05,2.05,0,0,1,.84.13.82.82,0,0,1,.38.37,1.68,1.68,0,0,1,.17.78,1.55,1.55,0,0,1-.36,1.08,1.82,1.82,0,0,1-1.09.52,1.81,1.81,0,0,1,.38.44,5,5,0,0,1,.42.92l.32,1h-.65l-.31-1a4.73,4.73,0,0,0-.39-.93.81.81,0,0,0-.29-.33,1.09,1.09,0,0,0-.49-.08h-.66l-.4,2.31Zm1.07-2.88h.79a5.18,5.18,0,0,0,.89,0,.92.92,0,0,0,.41-.19,1,1,0,0,0,.28-.36,1.11,1.11,0,0,0,.1-.48.83.83,0,0,0-.09-.4.49.49,0,0,0-.22-.23,1.21,1.21,0,0,0-.46-.06h-1.39Z"/><polygon class="cls-3" points="124.69 162.72 125.59 157.5 128.7 157.5 128.6 158.1 126.07 158.1 125.79 159.72 128.25 159.72 128.15 160.31 125.68 160.31 125.37 162.13 128.08 162.13 127.98 162.72 124.69 162.72"/><path class="cls-3" d="M134.19,160.46l1.06.2a3.32,3.32,0,0,1-1,1.63,2.19,2.19,0,0,1-1.47.54,1.81,1.81,0,0,1-1.48-.67,3.15,3.15,0,0,1-.55-2,4.89,4.89,0,0,1,.4-2,3.08,3.08,0,0,1,1-1.31,2.28,2.28,0,0,1,1.33-.43,1.86,1.86,0,0,1,1.35.52,2.31,2.31,0,0,1,.63,1.49l-1,.12a1.37,1.37,0,0,0-.34-.8.9.9,0,0,0-.64-.23,1.27,1.27,0,0,0-.78.29,2.18,2.18,0,0,0-.63,1,4,4,0,0,0-.26,1.48,1.89,1.89,0,0,0,.3,1.16.9.9,0,0,0,.74.4,1.12,1.12,0,0,0,.77-.32A2,2,0,0,0,134.19,160.46Z"/><path class="cls-3" d="M135.9,160.53a3.56,3.56,0,0,1,.72-2.32,2,2,0,0,1,1.57-.79,1.64,1.64,0,0,1,1.3.62,2.57,2.57,0,0,1,.52,1.72,3.69,3.69,0,0,1-.34,1.6,2.67,2.67,0,0,1-.86,1.08,1.89,1.89,0,0,1-1.1.36,1.61,1.61,0,0,1-.9-.26,1.91,1.91,0,0,1-.66-.8A2.77,2.77,0,0,1,135.9,160.53Zm.57,0a1.81,1.81,0,0,0,.38,1.21,1.15,1.15,0,0,0,.9.45,1.29,1.29,0,0,0,.78-.29,2.17,2.17,0,0,0,.65-.9,3.39,3.39,0,0,0,.26-1.34,1.91,1.91,0,0,0-.37-1.24,1.13,1.13,0,0,0-.9-.45,1.41,1.41,0,0,0-1.1.59A3,3,0,0,0,136.47,160.57Z"/><path class="cls-3" d="M140.34,162.72l.87-5.21h.72l.46,3.38c.06.45.1.87.12,1.28q.18-.53.6-1.43l1.51-3.23h.71l-.85,5.21h-.57l.43-2.54q.15-.88.43-2c-.12.34-.28.7-.46,1.09l-1.6,3.41h-.56l-.46-3.34c0-.29-.07-.65-.09-1.07,0,.44-.09.81-.14,1.09l-.56,3.32Z"/><path class="cls-3" d="M145.38,162.72l.87-5.21H147l.46,3.38c.06.45.1.87.12,1.28q.18-.53.6-1.43l1.51-3.23h.71l-.85,5.21h-.57l.43-2.54q.15-.88.43-2c-.12.34-.28.7-.46,1.09l-1.6,3.41h-.56l-.46-3.34c0-.29-.07-.65-.09-1.07,0,.44-.09.81-.13,1.09l-.56,3.32Z"/><polygon class="cls-3" points="150.42 162.72 151.32 157.5 154.42 157.5 154.32 158.1 151.79 158.1 151.51 159.72 153.97 159.72 153.87 160.31 151.41 160.31 151.1 162.13 153.81 162.13 153.7 162.72 150.42 162.72"/><path class="cls-3" d="M154.45,162.72l.9-5.21h1.8a2.06,2.06,0,0,1,.84.13.82.82,0,0,1,.38.37,1.66,1.66,0,0,1,.17.78,1.54,1.54,0,0,1-.36,1.08,1.82,1.82,0,0,1-1.09.52,1.8,1.8,0,0,1,.38.44,5,5,0,0,1,.42.92l.32,1h-.65l-.31-1a4.72,4.72,0,0,0-.39-.93.83.83,0,0,0-.29-.33,1.08,1.08,0,0,0-.49-.08h-.66l-.4,2.31Zm1.08-2.88h.79a5.19,5.19,0,0,0,.89,0,.93.93,0,0,0,.41-.19,1,1,0,0,0,.28-.36,1.08,1.08,0,0,0,.1-.48.83.83,0,0,0-.09-.4.5.5,0,0,0-.22-.23,1.22,1.22,0,0,0-.46-.06h-1.39Z"/><path class="cls-3" d="M162.15,160.87l.58.1a2.85,2.85,0,0,1-.8,1.37,1.73,1.73,0,0,1-1.15.45,1.54,1.54,0,0,1-1.24-.57,2.54,2.54,0,0,1-.47-1.67,3.84,3.84,0,0,1,.59-2.18,1.93,1.93,0,0,1,1.66-1,1.5,1.5,0,0,1,1.09.43,1.85,1.85,0,0,1,.51,1.21l-.54.05q-.17-1.12-1-1.12a1.41,1.41,0,0,0-1.24.77,3.41,3.41,0,0,0-.47,1.82,1.93,1.93,0,0,0,.33,1.23,1,1,0,0,0,.84.41,1.08,1.08,0,0,0,.77-.31A2.09,2.09,0,0,0,162.15,160.87Z"/><polygon class="cls-3" points="163.17 162.72 164.08 157.5 167.18 157.5 167.08 158.1 164.55 158.1 164.27 159.72 166.73 159.72 166.63 160.31 164.17 160.31 163.85 162.13 166.56 162.13 166.46 162.72 163.17 162.72"/><g class="cls-4"><polygon class="cls-5" points="191.79 57.8 130.58 185.37 0 127.57 61.21 0 191.79 57.8"/></g><g class="cls-6"><polygon class="cls-7" points="35.05 42.07 86.75 45.02 87.51 147.8 35.81 144.85 35.05 42.07"/></g><g class="cls-8"><rect class="cls-9" x="93.4" y="36.71" width="76.3" height="111.52" transform="translate(-18.83 35.52) rotate(-14.36)"/></g><g class="cls-10"><polygon class="cls-11" points="162.52 136.01 140.68 58.12 34.06 87.9 55.9 165.79 162.52 136.01"/></g><g class="cls-12"><polygon class="cls-13" points="32.09 37.15 45.98 105.11 151.23 85.75 137.34 17.8 32.09 37.15"/></g><g class="cls-14"><polygon class="cls-15" points="148.47 150.49 145.4 106.93 58.33 112.43 61.41 155.99 148.47 150.49"/></g><g class="cls-16"><polygon class="cls-17" points="45.22 36.33 48.42 74.06 121.59 68.39 118.39 30.65 45.22 36.33"/></g><path class="cls-18" d="M88.11,40.1C133,83.93,108.26,144.73,108.26,144.73"/><path class="cls-18" d="M103.6,145.35C62.31,111.93,82.24,41.06,82.24,41.06"/><path class="cls-3" d="M133.29,65.64q-.61,1.67-1.45,4.35t-1.31,4.52q-.58.33-1-.53a6.58,6.58,0,0,0,.49-2.52,8.37,8.37,0,0,0-2.34-5.79q-2.41-2.75-7.8-2.88a11.8,11.8,0,0,0-9.3,3.75Q107,70.43,106.79,77a22.59,22.59,0,0,0,1.76,9.49,61,61,0,0,0,4.2,8.19q1.78,2.91,2.93,4.87a29,29,0,0,1,1.83,3.58,14.51,14.51,0,0,1,.92,3.06,18,18,0,0,1,.2,3.46,18.48,18.48,0,0,1-1.51,6.88,26.2,26.2,0,0,1-3.69,6.16,34.94,34.94,0,0,1-4.94,5,27.85,27.85,0,0,1-5.26,3.51,29.86,29.86,0,0,1-14.25,3,31.17,31.17,0,0,1-6.43-.82,20.6,20.6,0,0,1-5.83-2.33l-1.25-1a1.79,1.79,0,0,1-.69-.94q.63-2.85,1.5-6.46t1.49-6c0-.22.15-.33.43-.33s.42.29.41.85a11.24,11.24,0,0,0-.5,3,12.11,12.11,0,0,0,3.06,8.42q3.17,3.7,10,3.86a23.5,23.5,0,0,0,5.18-.47,17.82,17.82,0,0,0,4.79-1.66,21.59,21.59,0,0,0,7.6-6.49A17.19,17.19,0,0,0,112,113.89a16.12,16.12,0,0,0-1-5.84,43.59,43.59,0,0,0-4.21-7.94,57.33,57.33,0,0,1-4.14-7.85,19,19,0,0,1-1.3-7.79,25,25,0,0,1,1.84-8.73,33.19,33.19,0,0,1,4.22-7.66,30.49,30.49,0,0,1,2.41-2.73,19.19,19.19,0,0,1,3.61-2.87,23.43,23.43,0,0,1,4.87-2.25,17.83,17.83,0,0,1,6.19-.87,13,13,0,0,1,4.37.86,8.51,8.51,0,0,1,3.76,3A4.55,4.55,0,0,1,133.29,65.64Z"/><path class="cls-19" d="M134.13,63.65q-.62,1.75-1.49,4.56t-1.35,4.74q-.59.34-1-.55a7,7,0,0,0,.5-2.64,8.86,8.86,0,0,0-2.4-6.06q-2.48-2.88-8-3a12,12,0,0,0-9.55,3.92q-3.73,4.06-3.89,10.94a24.11,24.11,0,0,0,1.8,9.93A64.48,64.48,0,0,0,113,94.05q1.82,3,3,5.1a30.77,30.77,0,0,1,1.88,3.75,15.42,15.42,0,0,1,.94,3.2,19.35,19.35,0,0,1,.21,3.63,19.72,19.72,0,0,1-1.55,7.2,27.49,27.49,0,0,1-3.79,6.44,36.23,36.23,0,0,1-5.07,5.27,28.55,28.55,0,0,1-5.4,3.67,30.12,30.12,0,0,1-14.62,3.19,31.23,31.23,0,0,1-6.6-.86,20.86,20.86,0,0,1-6-2.44l-1.29-1a1.88,1.88,0,0,1-.7-1q.65-3,1.54-6.76t1.53-6.23c0-.24.15-.35.44-.34s.43.31.42.89a11.91,11.91,0,0,0-.51,3.17,12.82,12.82,0,0,0,3.14,8.81q3.26,3.87,10.24,4a23.6,23.6,0,0,0,5.32-.49,17.9,17.9,0,0,0,4.91-1.74,22.31,22.31,0,0,0,7.79-6.79,18.23,18.23,0,0,0,3.38-10.6,17.21,17.21,0,0,0-1-6.12,46.07,46.07,0,0,0-4.32-8.31,60.27,60.27,0,0,1-4.24-8.22,20.29,20.29,0,0,1-1.34-8.15,26.67,26.67,0,0,1,1.89-9.14,34.92,34.92,0,0,1,4.33-8,31.41,31.41,0,0,1,2.47-2.86,19.74,19.74,0,0,1,3.71-3,23.93,23.93,0,0,1,5-2.35,18,18,0,0,1,6.35-.91,13.07,13.07,0,0,1,4.49.9,8.76,8.76,0,0,1,3.85,3.18A4.84,4.84,0,0,1,134.13,63.65Z"/><path class="cls-20" d="M134.13,63.65q-.62,1.75-1.49,4.56t-1.35,4.74q-.59.34-1-.55a7,7,0,0,0,.5-2.64,8.86,8.86,0,0,0-2.4-6.06q-2.48-2.88-8-3a12,12,0,0,0-9.55,3.92q-3.73,4.06-3.89,10.94a24.11,24.11,0,0,0,1.8,9.93A64.48,64.48,0,0,0,113,94.05q1.82,3,3,5.1a30.77,30.77,0,0,1,1.88,3.75,15.42,15.42,0,0,1,.94,3.2,19.35,19.35,0,0,1,.21,3.63,19.72,19.72,0,0,1-1.55,7.2,27.49,27.49,0,0,1-3.79,6.44,36.23,36.23,0,0,1-5.07,5.27,28.55,28.55,0,0,1-5.4,3.67,30.12,30.12,0,0,1-14.62,3.19,31.23,31.23,0,0,1-6.6-.86,20.86,20.86,0,0,1-6-2.44l-1.29-1a1.88,1.88,0,0,1-.7-1q.65-3,1.54-6.76t1.53-6.23c0-.24.15-.35.44-.34s.43.31.42.89a11.91,11.91,0,0,0-.51,3.17,12.82,12.82,0,0,0,3.14,8.81q3.26,3.87,10.24,4a23.6,23.6,0,0,0,5.32-.49,17.9,17.9,0,0,0,4.91-1.74,22.31,22.31,0,0,0,7.79-6.79,18.23,18.23,0,0,0,3.38-10.6,17.21,17.21,0,0,0-1-6.12,46.07,46.07,0,0,0-4.32-8.31,60.27,60.27,0,0,1-4.24-8.22,20.29,20.29,0,0,1-1.34-8.15,26.67,26.67,0,0,1,1.89-9.14,34.92,34.92,0,0,1,4.33-8,31.41,31.41,0,0,1,2.47-2.86,19.74,19.74,0,0,1,3.71-3,23.93,23.93,0,0,1,5-2.35,18,18,0,0,1,6.35-.91,13.07,13.07,0,0,1,4.49.9,8.76,8.76,0,0,1,3.85,3.18A4.84,4.84,0,0,1,134.13,63.65Z"/><path class="cls-3" d="M42.67,71.63a56.69,56.69,0,0,1,11.06-1c4.44,0,7.63.56,10.44,2.19A8.61,8.61,0,0,1,69,80.57c0,5.31-3.88,8.63-8.5,9.94v.19a9.1,9.1,0,0,1,6.63,9.19c0,4.56-2.44,7.81-5.75,10-3.56,2.44-8.88,3.44-15.88,3.44a58.4,58.4,0,0,1-10.63-.75Zm2.25,34.5a29.58,29.58,0,0,0,3.44.12c4.88,0,9.31-1.94,9.31-6.63,0-4.19-3.5-5.44-7.69-5.44H47.17Zm3.63-18.5h3c4.94,0,8.31-2.06,8.31-5.69,0-3-2.44-4.31-5.88-4.31a22.21,22.21,0,0,0-3.56.25Z"/><path class="cls-3" d="M80.09,102.07,75.15,113H65.52L86.09,70.88H97.65L102.53,113H93.09l-.88-10.94ZM91.84,95.2,91,86.13c-.19-2.31-.38-5.69-.56-8.25h-.19C89.21,80.45,88,83.7,86.9,86.13L82.78,95.2Z"/><path class="cls-3" d="M152.57,111.55c-2.25,1-6,1.81-11.06,1.81-11.19,0-18.63-6.75-18.63-17.88,0-9.56,4.25-16.94,10.63-21.19a26.55,26.55,0,0,1,15.44-4.44,21.73,21.73,0,0,1,9.25,1.75l-2.5,7.31a18.37,18.37,0,0,0-7.63-1.38,15.05,15.05,0,0,0-9.63,3.25c-3.5,2.94-5.81,7.75-5.81,13.63,0,6.75,3.81,11.25,11.19,11.25a21.61,21.61,0,0,0,8-1.37Z"/></g></g></g></g></g></svg>