<svg id="svg" xmlns="http://www.w3.org/2000/svg" xmlns:xlink="http://www.w3.org/1999/xlink" width="400" height="313.04347826086956" viewBox="0, 0, 400,313.04347826086956" version="1.1"><g id="svgg"><path id="path0" d="M190.760 5.061 C 181.601 5.693,173.136 6.745,171.240 7.486 C 170.755 7.676,169.980 7.829,169.518 7.826 C 166.698 7.809,152.244 11.802,144.401 14.764 C 140.655 16.179,140.723 16.151,137.353 17.704 C 135.975 18.340,134.283 19.081,133.594 19.351 C 132.905 19.621,132.018 20.090,131.622 20.393 C 131.226 20.696,130.488 21.034,129.981 21.146 C 129.474 21.257,128.987 21.466,128.898 21.610 C 128.809 21.754,128.067 22.188,127.250 22.574 C 126.432 22.960,125.552 23.447,125.294 23.657 C 125.035 23.866,124.119 24.424,123.258 24.896 C 119.820 26.780,117.250 28.332,116.165 29.180 C 115.537 29.670,114.932 30.070,114.820 30.070 C 114.546 30.070,105.975 36.111,104.711 37.195 C 104.158 37.670,103.176 38.481,102.529 38.998 C 96.107 44.128,88.250 51.776,82.898 58.105 C 79.786 61.785,79.561 62.061,79.561 62.204 C 79.561 62.275,79.350 62.580,79.091 62.882 C 77.911 64.257,76.513 66.004,76.021 66.719 C 75.725 67.150,75.097 68.049,74.625 68.718 C 74.153 69.388,73.414 70.460,72.984 71.103 C 69.748 75.927,68.637 77.636,68.255 78.379 C 68.013 78.849,66.912 80.822,65.808 82.764 C 64.704 84.707,63.626 86.648,63.414 87.079 C 63.201 87.510,62.565 88.778,62.000 89.898 C 60.790 92.300,60.633 92.625,60.194 93.657 C 60.011 94.088,59.453 95.356,58.954 96.476 C 58.456 97.596,57.657 99.499,57.178 100.705 C 56.700 101.911,56.196 103.179,56.057 103.524 C 55.176 105.720,54.163 108.756,53.877 110.063 C 53.693 110.903,53.396 111.865,53.217 112.200 C 52.738 113.093,51.966 116.219,52.149 116.517 C 52.236 116.657,54.311 116.751,56.759 116.726 L 61.210 116.680 61.612 115.270 C 61.833 114.495,62.147 113.579,62.310 113.234 C 62.473 112.890,62.819 111.903,63.079 111.042 C 64.521 106.259,67.185 99.882,70.356 93.624 C 71.457 91.453,72.357 89.587,72.357 89.477 C 72.357 89.311,73.648 87.163,75.408 84.400 C 75.621 84.064,76.100 83.226,76.471 82.537 C 76.842 81.848,77.864 80.227,78.741 78.935 C 79.619 77.643,80.502 76.279,80.702 75.904 C 81.022 75.305,82.032 73.994,85.033 70.278 C 85.469 69.738,85.826 69.203,85.826 69.090 C 85.826 68.977,86.763 67.799,87.907 66.471 C 89.052 65.143,90.777 63.140,91.741 62.020 C 98.569 54.090,112.272 42.233,119.757 37.779 C 120.304 37.454,121.527 36.666,122.475 36.029 C 126.542 33.293,138.946 26.625,139.968 26.625 C 140.147 26.625,140.791 26.331,141.401 25.971 C 142.589 25.270,147.940 23.139,150.509 22.343 C 151.370 22.076,152.357 21.738,152.702 21.591 C 153.046 21.444,154.033 21.115,154.894 20.859 C 155.756 20.604,157.940 19.953,159.749 19.414 C 164.091 18.119,163.699 18.218,166.517 17.696 C 167.877 17.443,170.681 16.881,172.749 16.447 C 179.630 15.000,189.124 14.115,197.964 14.097 C 203.960 14.084,217.694 14.802,218.269 15.158 C 218.411 15.245,219.758 15.470,221.262 15.657 C 222.767 15.844,224.871 16.221,225.938 16.494 C 227.005 16.768,228.230 16.986,228.661 16.979 C 229.092 16.972,230.315 17.229,231.380 17.550 C 232.445 17.871,234.559 18.424,236.078 18.779 C 237.598 19.134,240.039 19.831,241.504 20.329 C 242.968 20.826,244.800 21.402,245.576 21.608 C 246.351 21.814,247.690 22.313,248.551 22.717 C 249.413 23.120,250.540 23.554,251.057 23.680 C 251.574 23.807,252.617 24.239,253.375 24.641 C 254.133 25.043,254.957 25.372,255.206 25.372 C 255.455 25.372,256.033 25.574,256.490 25.821 C 256.948 26.068,258.802 27.010,260.611 27.915 C 264.539 29.879,268.418 31.870,269.068 32.254 C 269.327 32.406,269.749 32.617,270.008 32.723 C 270.668 32.992,271.142 33.294,276.429 36.811 C 279.013 38.530,281.269 40.008,281.441 40.094 C 281.910 40.329,284.550 42.098,284.730 42.298 C 284.816 42.394,285.803 43.164,286.922 44.009 C 294.163 49.474,304.158 59.114,309.329 65.620 C 310.012 66.481,311.276 68.038,312.138 69.082 C 313.940 71.266,316.628 74.969,317.243 76.116 C 317.474 76.547,318.188 77.604,318.829 78.465 C 319.470 79.327,320.890 81.582,321.984 83.477 C 323.079 85.372,324.447 87.660,325.025 88.562 C 325.604 89.464,326.077 90.285,326.077 90.388 C 326.077 90.490,326.841 92.093,327.775 93.950 C 329.841 98.055,333.765 107.213,334.057 108.610 C 334.174 109.168,334.399 109.705,334.558 109.803 C 334.717 109.902,334.847 110.223,334.847 110.516 C 334.847 110.810,335.129 111.577,335.474 112.220 C 335.818 112.863,336.100 113.737,336.100 114.162 C 336.100 114.588,336.338 115.434,336.628 116.043 L 337.156 117.150 341.621 117.150 C 346.855 117.150,346.649 117.313,345.622 113.976 C 342.009 102.237,337.338 91.307,332.217 82.605 C 331.252 80.965,330.462 79.505,330.462 79.360 C 330.462 79.101,329.884 78.195,326.835 73.674 C 325.987 72.418,324.941 70.854,324.511 70.200 C 322.960 67.843,322.435 67.126,319.812 63.782 C 312.951 55.031,301.693 43.752,293.814 37.734 C 292.694 36.878,291.707 36.107,291.621 36.020 C 291.398 35.795,289.113 34.075,288.294 33.516 C 287.915 33.258,286.454 32.236,285.046 31.245 C 283.639 30.255,282.369 29.444,282.225 29.444 C 282.081 29.444,281.916 29.327,281.859 29.184 C 281.801 29.041,280.730 28.319,279.478 27.579 C 278.225 26.839,277.125 26.110,277.031 25.959 C 276.938 25.809,276.584 25.685,276.244 25.685 C 275.904 25.685,275.545 25.474,275.446 25.215 C 275.347 24.957,275.034 24.736,274.751 24.725 C 274.468 24.713,273.532 24.288,272.670 23.779 C 271.809 23.271,270.866 22.773,270.575 22.672 C 270.284 22.572,269.297 22.081,268.382 21.581 C 267.467 21.081,265.521 20.098,264.056 19.396 C 262.592 18.694,261.020 17.920,260.562 17.674 C 260.105 17.429,259.568 17.228,259.368 17.228 C 259.008 17.228,256.254 16.056,254.556 15.179 C 254.068 14.928,253.473 14.722,253.233 14.722 C 252.993 14.722,252.053 14.387,251.144 13.978 C 250.235 13.569,248.575 12.981,247.455 12.672 C 246.335 12.363,245.285 11.993,245.121 11.850 C 244.958 11.707,244.515 11.590,244.138 11.590 C 243.061 11.590,237.476 10.067,236.710 9.565 C 236.330 9.316,235.033 8.972,233.828 8.801 C 232.623 8.630,230.579 8.262,229.287 7.985 C 227.995 7.708,225.810 7.266,224.432 7.004 C 223.054 6.741,221.363 6.404,220.673 6.253 C 219.984 6.103,217.800 5.893,215.818 5.786 C 212.249 5.593,211.321 5.516,207.987 5.137 C 205.578 4.863,194.339 4.813,190.760 5.061 M201.346 26.664 C 201.172 26.772,200.830 28.393,200.586 30.266 C 200.342 32.140,199.994 34.589,199.813 35.709 C 199.632 36.829,199.418 38.436,199.338 39.281 C 199.259 40.126,199.135 40.912,199.064 41.028 C 198.875 41.333,197.893 47.647,198.016 47.760 C 198.074 47.812,199.248 47.906,200.626 47.968 L 203.132 48.081 203.397 46.107 L 203.661 44.133 204.963 44.228 L 206.265 44.323 206.362 45.889 C 206.487 47.905,206.522 47.932,209.352 48.119 C 212.091 48.300,211.943 48.516,211.424 45.106 C 211.253 43.986,210.903 41.449,210.645 39.468 C 210.387 37.486,210.100 35.301,210.007 34.612 C 209.914 33.923,209.657 31.915,209.435 30.149 C 209.214 28.384,208.953 26.860,208.856 26.762 C 208.608 26.515,201.732 26.425,201.346 26.664 M178.014 28.766 C 175.875 29.452,175.913 29.379,176.369 31.931 C 176.826 34.485,176.765 34.635,175.536 33.993 C 172.634 32.480,169.795 34.729,170.373 38.083 C 171.366 43.847,172.707 49.444,173.305 50.326 C 174.372 51.900,177.118 51.917,178.775 50.360 C 179.347 49.823,179.611 49.762,180.198 50.029 C 181.081 50.432,184.108 50.012,184.717 49.403 C 185.070 49.050,185.061 48.679,184.663 47.122 C 184.401 46.099,183.606 42.514,182.895 39.154 C 180.262 26.704,180.810 27.871,178.014 28.766 M205.812 34.221 C 205.870 35.470,205.925 37.408,205.934 38.528 L 205.951 40.564 204.855 40.564 C 204.067 40.564,203.773 40.432,203.809 40.094 C 204.744 31.354,205.567 28.940,205.812 34.221 M216.998 31.408 C 216.698 31.645,216.374 32.756,216.157 34.299 C 215.962 35.677,215.745 37.157,215.675 37.588 C 215.604 38.019,215.391 39.569,215.202 41.034 C 215.013 42.498,214.729 44.190,214.571 44.792 C 214.413 45.395,214.206 46.476,214.112 47.194 L 213.940 48.500 215.521 48.839 C 218.914 49.566,218.663 49.876,219.562 43.853 C 220.123 40.094,220.584 37.336,221.016 35.161 C 221.156 34.452,221.836 34.260,222.840 34.646 C 223.460 34.884,223.464 35.945,222.858 39.624 C 222.603 41.175,222.194 43.742,221.950 45.329 C 221.706 46.916,221.418 48.493,221.310 48.833 C 221.054 49.641,221.731 49.982,224.036 50.208 C 226.118 50.412,226.109 50.421,226.327 48.056 C 226.419 47.067,226.555 46.159,226.629 46.039 C 226.703 45.919,226.981 44.074,227.246 41.939 C 227.511 39.805,227.843 37.339,227.983 36.460 C 228.542 32.972,226.233 31.306,222.818 32.733 C 221.419 33.317,221.519 33.333,221.400 32.511 C 221.323 31.981,221.006 31.761,220.047 31.572 C 219.358 31.437,218.500 31.258,218.140 31.175 C 217.780 31.092,217.266 31.197,216.998 31.408 M188.206 35.134 C 186.864 36.587,186.667 37.748,187.444 39.610 C 188.550 42.257,192.551 42.753,194.170 40.444 C 197.158 36.183,191.713 31.335,188.206 35.134 M235.164 35.656 C 234.226 36.015,233.836 36.436,233.206 37.767 C 232.185 39.926,232.182 39.913,233.826 40.686 C 235.946 41.683,236.283 41.583,236.937 39.764 C 237.621 37.863,239.366 37.497,239.565 39.212 C 239.790 41.162,238.595 42.477,236.350 42.752 C 231.344 43.365,230.334 44.293,229.731 48.837 C 229.368 51.576,232.353 53.472,234.826 52.072 C 235.433 51.728,235.520 51.762,235.609 52.377 C 235.684 52.894,236.059 53.169,237.100 53.470 C 237.865 53.691,238.634 54.013,238.807 54.187 C 239.767 55.147,240.322 54.204,241.477 49.648 C 241.870 48.097,242.305 46.547,242.444 46.202 C 242.873 45.137,243.780 41.260,243.931 39.848 C 244.249 36.866,238.805 34.263,235.164 35.656 M176.999 36.205 C 177.225 36.477,177.444 36.936,177.486 37.223 C 177.527 37.510,177.866 38.943,178.239 40.407 C 179.803 46.540,179.717 49.445,178.005 48.365 C 177.170 47.839,174.858 37.958,175.227 36.491 C 175.452 35.592,176.367 35.444,176.999 36.205 M164.198 36.720 C 163.998 37.111,163.694 37.819,163.522 38.293 C 163.202 39.177,162.569 39.477,162.569 38.744 C 162.569 37.499,161.873 37.258,159.980 37.849 C 157.107 38.744,157.085 37.979,160.230 46.829 C 161.209 49.585,162.206 52.459,162.444 53.216 C 163.139 55.417,163.256 55.474,165.458 54.681 C 167.816 53.833,167.828 53.800,166.798 50.983 C 165.698 47.975,165.091 45.863,164.868 44.273 C 164.680 42.929,164.779 42.761,166.462 41.551 C 167.053 41.126,167.046 41.063,166.147 38.673 C 165.148 36.018,164.756 35.626,164.198 36.720 M250.886 37.510 C 250.517 38.328,250.028 39.512,249.799 40.141 C 249.571 40.770,249.030 42.039,248.597 42.960 C 248.165 43.882,247.434 45.613,246.974 46.806 C 246.514 48.000,246.027 49.198,245.892 49.469 C 245.757 49.739,245.328 50.736,244.939 51.684 C 244.549 52.631,244.040 53.851,243.807 54.393 C 243.189 55.833,243.238 55.932,244.871 56.515 C 245.689 56.807,246.603 57.178,246.903 57.340 C 247.670 57.756,247.621 57.801,248.389 55.991 C 248.772 55.086,249.297 53.853,249.556 53.250 C 249.814 52.647,250.143 51.872,250.288 51.527 C 250.433 51.182,250.912 50.086,251.353 49.090 C 251.793 48.094,252.153 47.154,252.153 47.001 C 252.153 46.848,252.358 46.324,252.608 45.836 C 253.476 44.143,256.024 37.909,255.890 37.804 C 255.554 37.542,252.105 36.022,251.846 36.022 C 251.687 36.022,251.254 36.691,250.886 37.510 M147.063 43.019 C 143.970 44.520,142.836 46.901,143.817 49.836 C 144.368 51.485,144.532 51.537,146.582 50.723 C 148.690 49.886,148.681 49.905,147.957 47.885 C 147.013 45.252,148.325 44.440,149.813 46.735 C 150.823 48.293,150.889 49.191,150.051 49.950 C 149.713 50.256,148.784 51.470,147.986 52.649 L 146.535 54.792 147.036 56.300 C 147.722 58.365,148.973 60.118,150.099 60.591 C 151.771 61.295,154.424 59.855,154.424 58.245 C 154.424 57.459,154.900 57.232,155.367 57.795 C 156.198 58.796,160.248 57.148,159.873 55.962 C 159.379 54.402,153.764 43.606,153.163 43.062 C 152.095 42.096,149.010 42.073,147.063 43.019 M257.790 44.871 C 257.603 45.603,256.953 47.823,256.344 49.804 C 253.261 59.850,253.270 59.828,251.882 59.828 C 251.395 59.828,250.745 60.107,250.436 60.448 C 249.587 61.387,249.749 61.523,254.291 63.691 C 255.322 64.183,256.709 64.124,257.854 63.540 C 258.318 63.303,261.117 59.812,262.490 57.756 C 262.749 57.370,264.251 55.217,265.828 52.973 C 268.969 48.505,268.945 48.700,266.501 47.653 C 264.818 46.931,264.745 46.976,263.303 49.601 C 261.655 52.598,258.690 56.549,258.346 56.205 C 258.172 56.032,259.571 51.630,260.579 49.178 C 261.270 47.498,261.864 45.659,261.864 45.200 C 261.864 44.881,259.106 43.540,258.450 43.540 C 258.274 43.540,257.976 44.139,257.790 44.871 M237.745 45.205 C 237.745 45.803,236.839 48.897,236.417 49.741 C 235.410 51.753,233.965 50.077,234.663 47.707 C 235.228 45.789,237.745 43.746,237.745 45.205 M137.097 48.703 C 134.925 49.835,131.245 52.432,131.245 52.832 C 131.245 54.452,132.716 55.183,133.979 54.190 C 134.417 53.845,135.029 53.563,135.338 53.563 C 135.938 53.563,136.000 53.705,136.571 56.382 C 136.772 57.330,137.056 58.598,137.200 59.201 C 137.345 59.804,137.633 61.389,137.842 62.722 C 138.051 64.055,138.414 65.306,138.649 65.501 C 138.884 65.696,139.076 66.033,139.076 66.249 C 139.076 67.551,140.858 67.571,142.354 66.285 C 142.844 65.864,144.010 65.120,144.945 64.631 C 147.182 63.463,147.390 63.187,146.911 62.031 C 146.270 60.484,145.936 60.404,144.315 61.413 C 142.105 62.789,142.481 63.505,140.596 54.346 C 140.004 51.470,138.641 48.219,138.036 48.240 C 138.005 48.241,137.582 48.449,137.097 48.703 M153.330 53.746 C 154.221 55.622,154.380 56.214,154.089 56.565 C 152.854 58.054,150.498 54.582,151.105 52.165 C 151.452 50.780,152.163 51.285,153.330 53.746 M272.279 52.565 C 271.719 52.619,271.261 52.760,271.260 52.878 C 271.260 52.996,270.895 53.516,270.448 54.033 C 268.756 55.991,268.210 59.114,269.310 60.554 C 270.811 62.520,271.071 65.034,269.907 66.327 C 268.463 67.931,266.985 66.550,268.108 64.647 C 268.975 63.179,268.969 63.161,267.292 62.050 C 265.400 60.797,265.430 60.789,264.550 62.780 C 263.619 64.885,263.842 66.302,265.351 67.858 C 270.848 73.530,277.535 68.766,274.236 61.529 C 272.926 58.653,272.858 57.575,273.921 56.512 C 275.327 55.107,276.496 56.428,275.595 58.405 C 275.262 59.137,275.334 59.294,276.457 60.286 C 278.079 61.718,278.585 61.679,279.364 60.063 C 281.013 56.640,276.754 52.133,272.279 52.565 M123.727 57.819 C 119.527 60.210,118.393 63.720,120.862 66.684 L 121.747 67.746 123.364 66.539 C 125.208 65.162,125.291 64.837,124.176 63.374 C 122.692 61.428,124.005 59.837,125.618 61.626 C 127.267 63.456,127.247 63.664,124.906 68.825 C 124.084 70.638,124.311 71.291,126.563 73.586 C 129.192 76.265,132.811 75.389,132.811 72.073 C 132.811 70.887,133.267 70.598,133.843 71.420 C 134.282 72.047,134.319 72.036,135.816 70.799 C 136.655 70.105,137.450 69.538,137.582 69.538 C 138.230 69.538,137.667 68.347,136.243 66.702 C 135.373 65.699,134.047 64.086,133.296 63.119 C 128.677 57.170,126.745 56.100,123.727 57.819 M287.471 58.287 C 286.432 58.892,288.838 62.334,290.299 62.334 C 291.854 62.334,291.738 60.974,290.055 59.482 C 288.154 57.797,288.241 57.838,287.471 58.287 M284.723 61.316 C 284.719 61.445,284.120 62.203,283.392 63.000 C 282.663 63.797,281.363 65.273,280.501 66.280 C 278.975 68.063,276.566 70.778,275.109 72.357 C 273.799 73.776,273.855 74.223,275.528 75.701 C 277.466 77.412,277.471 77.411,279.291 75.220 C 280.129 74.210,281.942 72.122,283.320 70.581 C 286.672 66.832,288.945 64.185,289.021 63.942 C 289.126 63.607,285.790 61.081,285.243 61.081 C 284.961 61.081,284.727 61.186,284.723 61.316 M109.076 65.665 C 107.036 67.828,106.954 67.455,110.101 70.365 C 112.898 72.951,113.263 73.709,111.992 74.288 C 111.280 74.613,111.011 74.454,108.536 72.246 C 105.257 69.320,105.615 69.337,103.289 71.994 C 102.028 73.435,101.355 72.646,112.918 83.291 C 118.465 88.397,117.936 88.194,119.850 85.954 L 121.346 84.203 118.152 81.172 C 114.824 78.014,114.548 77.523,115.578 76.591 C 116.313 75.926,116.110 75.794,119.903 79.405 C 123.297 82.637,122.936 82.586,125.236 80.147 L 126.587 78.713 120.699 73.264 C 117.460 70.267,114.103 67.137,113.239 66.307 C 112.375 65.478,111.453 64.604,111.190 64.365 C 110.775 63.987,110.500 64.155,109.076 65.665 M130.601 67.580 C 132.139 69.363,132.464 70.333,131.759 71.038 C 130.731 72.066,127.847 68.521,128.310 66.797 C 128.595 65.736,129.183 65.937,130.601 67.580 M194.334 66.694 C 194.261 66.767,193.674 66.851,193.029 66.880 C 189.586 67.038,185.637 67.447,183.555 67.861 C 178.087 68.951,175.196 69.626,174.302 70.023 C 173.778 70.255,172.791 70.588,172.109 70.762 C 169.132 71.522,167.578 72.048,165.180 73.107 C 163.774 73.728,162.554 74.236,162.468 74.236 C 162.249 74.236,156.886 76.854,154.260 78.242 C 143.825 83.759,128.708 97.787,123.472 106.813 C 123.022 107.588,122.543 108.269,122.408 108.327 C 122.272 108.384,122.161 108.553,122.161 108.703 C 122.161 108.852,121.759 109.580,121.267 110.321 C 120.776 111.062,119.917 112.514,119.358 113.547 C 118.800 114.581,118.203 115.597,118.032 115.805 C 117.340 116.648,118.226 116.787,123.945 116.734 L 129.793 116.680 131.694 113.861 C 137.684 104.975,146.182 96.110,152.413 92.247 C 152.969 91.903,154.607 90.846,156.053 89.898 C 159.659 87.535,159.725 87.496,161.304 86.763 C 162.073 86.407,162.919 85.936,163.184 85.716 C 163.448 85.496,164.722 84.916,166.014 84.426 C 167.306 83.937,169.068 83.219,169.930 82.832 C 170.791 82.444,172.341 81.890,173.375 81.601 C 174.409 81.311,176.030 80.815,176.977 80.499 C 179.445 79.674,185.530 78.392,188.097 78.155 C 189.303 78.044,190.854 77.866,191.543 77.760 C 193.384 77.477,203.603 77.490,207.048 77.779 C 212.174 78.211,224.050 80.819,225.676 81.871 C 226.026 82.097,226.724 82.383,227.229 82.508 C 229.318 83.023,237.895 87.266,240.955 89.298 C 241.970 89.973,242.854 90.525,242.920 90.525 C 243.083 90.525,245.963 92.462,246.396 92.863 C 246.588 93.041,247.710 93.962,248.889 94.910 C 250.993 96.602,255.307 100.488,256.855 102.086 C 259.471 104.788,265.936 112.925,265.936 113.516 C 265.936 113.649,266.383 114.382,266.931 115.143 C 268.211 116.927,268.938 117.108,274.904 117.130 C 280.860 117.152,280.840 117.169,278.773 113.844 C 277.922 112.475,277.089 111.045,276.920 110.666 C 276.497 109.716,274.289 106.367,274.002 106.239 C 273.872 106.181,273.767 105.934,273.767 105.690 C 273.767 105.446,273.640 105.247,273.484 105.247 C 273.239 105.247,272.821 104.678,271.417 102.435 C 268.613 97.953,257.475 87.357,251.057 83.066 C 249.334 81.914,247.854 80.893,247.768 80.798 C 247.111 80.071,238.330 75.462,235.552 74.385 C 234.777 74.084,233.719 73.656,233.202 73.433 C 232.685 73.210,231.621 72.753,230.838 72.417 C 230.055 72.082,228.822 71.707,228.099 71.585 C 227.376 71.463,226.715 71.250,226.630 71.112 C 226.545 70.975,225.960 70.765,225.330 70.647 C 224.700 70.529,223.888 70.251,223.525 70.030 C 222.888 69.642,221.704 69.368,217.384 68.608 C 216.265 68.411,214.503 68.054,213.469 67.814 C 211.616 67.385,209.279 67.176,202.506 66.834 C 197.746 66.593,194.491 66.537,194.334 66.694 M291.390 69.132 C 290.518 69.300,288.239 71.607,287.723 72.844 C 287.406 73.605,287.442 74.308,287.931 76.870 C 288.617 80.463,288.407 81.503,286.884 82.034 C 284.752 82.777,284.044 80.166,286.158 79.355 C 286.907 79.067,286.676 78.449,285.311 77.084 C 283.754 75.527,283.157 75.707,281.955 78.097 C 280.026 81.931,285.569 87.665,289.326 85.722 C 290.364 85.186,292.541 82.909,292.597 82.301 C 292.702 81.175,292.538 79.465,292.116 77.278 C 291.593 74.560,291.790 73.648,293.044 72.976 C 294.579 72.155,295.548 73.432,294.482 74.873 C 293.592 76.077,293.612 76.168,295.089 77.706 L 296.365 79.034 297.360 78.038 C 298.516 76.881,298.719 74.293,297.768 72.842 C 296.457 70.841,293.364 68.664,292.247 68.956 C 292.161 68.978,291.776 69.058,291.390 69.132 M202.036 125.071 C 201.950 125.156,200.752 125.296,199.374 125.381 C 191.595 125.860,184.243 129.569,180.054 135.128 C 177.939 137.935,175.731 142.217,175.727 143.521 C 175.726 143.985,175.607 144.436,175.464 144.525 C 175.321 144.613,175.023 145.503,174.802 146.501 C 174.581 147.499,174.285 148.534,174.145 148.801 C 172.506 151.925,173.904 166.982,176.337 172.405 C 179.212 178.813,187.333 186.688,191.067 186.688 C 191.338 186.688,191.838 186.883,192.178 187.121 C 192.519 187.359,193.713 187.705,194.832 187.889 C 195.952 188.074,197.713 188.372,198.747 188.552 C 202.309 189.173,209.875 189.015,213.626 188.240 C 214.401 188.080,215.434 187.884,215.922 187.804 C 217.205 187.595,219.601 186.667,220.565 186.005 C 221.022 185.691,221.474 185.435,221.567 185.435 C 222.759 185.435,228.158 180.290,229.228 178.135 C 229.625 177.334,230.069 176.605,230.213 176.516 C 230.635 176.255,231.770 173.922,232.089 172.659 C 232.251 172.019,232.675 170.659,233.031 169.635 C 233.858 167.263,234.393 167.579,225.842 165.395 C 224.550 165.065,222.900 164.505,222.176 164.151 C 219.909 163.043,217.073 162.505,216.846 163.140 C 216.743 163.429,216.399 164.340,216.082 165.164 C 215.765 165.989,215.505 166.923,215.505 167.240 C 215.505 167.557,215.291 167.994,215.029 168.212 C 214.768 168.429,214.330 169.078,214.056 169.655 C 211.569 174.897,202.044 176.181,197.211 171.926 C 195.449 170.376,194.051 167.562,193.581 164.620 C 193.392 163.433,193.172 162.357,193.093 162.230 C 192.220 160.817,193.416 148.716,194.688 146.086 C 197.498 140.279,206.465 137.291,210.946 140.667 C 212.378 141.746,214.252 143.619,214.252 143.971 C 214.252 144.207,214.377 144.401,214.529 144.401 C 214.681 144.401,215.121 145.176,215.505 146.124 C 216.050 147.465,216.352 147.844,216.873 147.835 C 217.637 147.823,220.952 147.062,221.371 146.803 C 221.524 146.709,222.275 146.554,223.041 146.459 C 223.806 146.364,224.714 146.216,225.059 146.131 C 225.403 146.045,226.390 145.823,227.251 145.638 C 228.113 145.452,229.535 145.098,230.411 144.851 C 231.288 144.603,232.239 144.401,232.526 144.401 C 233.392 144.401,232.367 141.095,230.663 138.396 C 230.251 137.743,229.914 137.074,229.914 136.910 C 229.914 135.771,224.946 130.589,222.487 129.163 C 221.662 128.684,220.940 128.182,220.882 128.046 C 220.825 127.910,220.538 127.800,220.244 127.800 C 219.950 127.800,219.157 127.518,218.481 127.173 C 217.805 126.829,216.991 126.547,216.671 126.547 C 216.352 126.547,215.849 126.417,215.553 126.259 C 214.318 125.598,202.548 124.563,202.036 125.071 M266.249 125.297 C 248.269 127.051,237.744 143.656,241.335 164.605 C 242.877 173.601,248.966 182.844,254.973 185.307 C 255.231 185.413,256.006 185.769,256.695 186.098 C 261.193 188.247,268.909 189.321,276.498 188.853 C 280.564 188.602,281.593 188.426,285.043 187.384 C 291.774 185.353,297.491 179.315,299.889 171.704 C 300.341 170.268,300.857 168.821,301.035 168.488 C 301.293 168.007,301.244 167.849,300.797 167.709 C 300.488 167.613,299.989 167.403,299.688 167.242 C 299.387 167.082,297.792 166.608,296.142 166.189 C 294.493 165.771,292.977 165.301,292.774 165.146 C 292.570 164.991,291.065 164.540,289.428 164.144 C 287.792 163.748,286.053 163.222,285.564 162.974 C 284.436 162.403,284.032 162.867,283.476 165.374 C 281.122 175.983,266.737 178.214,262.179 168.677 C 260.534 165.235,259.762 158.336,260.409 152.858 C 260.521 151.911,260.690 150.431,260.784 149.569 C 262.023 138.251,277.680 135.761,282.740 146.078 C 283.381 147.385,283.774 147.842,284.247 147.830 C 285.438 147.799,293.388 146.092,295.650 145.382 C 296.229 145.200,296.793 145.072,296.903 145.098 C 297.944 145.342,300.695 144.236,300.516 143.645 C 298.211 136.069,291.803 129.073,285.288 127.023 C 284.378 126.736,283.344 126.362,282.990 126.191 C 282.636 126.020,282.213 125.916,282.050 125.960 C 281.887 126.004,280.740 125.802,279.500 125.510 C 277.107 124.948,270.860 124.847,266.249 125.297 M38.073 125.896 C 37.830 126.289,37.831 187.348,38.074 187.591 C 38.292 187.809,56.624 187.803,56.842 187.585 C 56.920 187.507,57.003 181.987,57.026 175.319 C 57.052 167.932,57.186 163.122,57.370 163.009 C 57.735 162.783,77.359 162.767,77.584 162.993 C 77.671 163.080,77.764 168.576,77.791 175.207 C 77.817 181.837,77.956 187.379,78.100 187.523 C 78.772 188.195,97.045 187.865,97.156 187.179 C 97.214 186.823,97.255 172.858,97.248 156.147 L 97.235 125.764 87.785 125.681 C 78.962 125.603,78.316 125.635,78.034 126.161 C 77.861 126.485,77.731 130.648,77.729 135.954 C 77.728 141.031,77.716 145.700,77.704 146.331 L 77.682 147.478 67.695 147.503 C 60.099 147.522,57.630 147.435,57.387 147.139 C 57.188 146.897,57.061 143.619,57.052 138.449 C 57.043 133.884,57.030 129.127,57.023 127.878 L 57.009 125.607 47.630 125.607 C 42.239 125.607,38.176 125.730,38.073 125.896 M127.251 125.828 C 126.797 125.915,126.547 126.189,126.547 126.598 C 126.547 126.947,126.350 127.607,126.111 128.064 C 125.625 128.991,125.349 129.691,123.251 135.317 C 122.448 137.471,121.606 139.726,121.378 140.329 C 121.151 140.932,120.655 142.271,120.275 143.305 C 118.716 147.549,118.289 148.676,117.886 149.617 C 117.653 150.160,117.463 150.747,117.463 150.923 C 117.463 151.098,117.269 151.640,117.031 152.128 C 116.289 153.653,115.673 155.150,115.119 156.774 C 114.405 158.867,113.192 162.141,112.478 163.900 C 112.321 164.287,111.877 165.450,111.492 166.484 C 111.107 167.518,110.619 168.786,110.409 169.303 C 110.199 169.820,109.649 171.370,109.187 172.749 C 108.724 174.127,108.142 175.629,107.893 176.086 C 107.643 176.543,107.435 177.177,107.429 177.495 C 107.424 177.813,107.212 178.347,106.959 178.682 C 106.707 179.016,106.500 179.488,106.500 179.731 C 106.500 179.973,106.302 180.616,106.061 181.159 C 105.819 181.701,105.477 182.569,105.300 183.085 C 105.124 183.602,104.696 184.772,104.351 185.685 L 103.723 187.346 104.407 187.602 C 104.782 187.742,109.114 187.865,114.032 187.874 L 122.975 187.891 123.663 186.115 C 124.041 185.138,124.698 182.942,125.122 181.235 C 125.547 179.528,126.014 178.011,126.162 177.863 C 126.309 177.716,131.211 177.632,137.056 177.678 L 147.682 177.760 148.137 178.700 C 148.569 179.592,149.197 181.593,150.251 185.435 C 150.961 188.026,150.214 187.858,160.992 187.848 C 171.579 187.837,171.653 187.827,170.937 186.488 C 170.123 184.969,169.146 182.375,169.146 181.734 C 169.146 181.400,168.950 180.963,168.709 180.763 C 168.469 180.564,168.177 179.895,168.061 179.277 C 167.946 178.659,167.723 177.924,167.567 177.644 C 167.411 177.363,166.632 175.372,165.835 173.218 C 165.038 171.065,164.211 168.951,163.997 168.520 C 163.783 168.089,163.287 166.821,162.896 165.701 C 162.504 164.581,161.989 163.221,161.750 162.678 C 161.511 162.135,161.316 161.592,161.316 161.472 C 161.316 161.352,161.118 160.809,160.877 160.267 C 160.636 159.724,160.365 158.998,160.275 158.653 C 160.185 158.309,159.671 156.899,159.131 155.521 C 157.913 152.407,154.181 142.489,153.592 140.799 C 153.351 140.110,153.026 139.264,152.869 138.919 C 152.711 138.575,151.665 135.813,150.543 132.782 C 149.422 129.750,148.333 126.896,148.125 126.439 L 147.746 125.607 137.851 125.650 C 132.409 125.673,127.639 125.753,127.251 125.828 M310.985 126.077 L 310.258 126.390 310.336 157.060 C 310.379 173.929,310.455 187.772,310.505 187.822 C 310.555 187.872,314.890 187.941,320.137 187.976 L 329.679 188.040 329.730 178.358 C 329.807 163.972,329.695 165.491,330.693 165.240 C 331.404 165.062,333.660 165.044,339.702 165.169 C 343.440 165.247,349.554 164.307,351.692 163.327 C 352.601 162.910,353.447 162.568,353.572 162.567 C 355.139 162.553,359.742 157.840,361.217 154.738 C 363.131 150.712,363.753 143.543,362.549 139.389 C 362.275 138.442,361.953 137.314,361.835 136.883 C 361.205 134.581,357.240 129.797,355.188 128.861 C 354.768 128.669,353.861 128.256,353.171 127.943 C 352.482 127.630,351.814 127.399,351.685 127.429 C 351.557 127.460,350.429 127.212,349.179 126.879 C 347.572 126.450,345.366 126.219,341.641 126.090 C 338.744 125.989,336.278 125.893,336.159 125.877 C 336.041 125.860,335.803 125.871,335.630 125.901 C 335.156 125.985,317.872 125.939,314.587 125.845 C 313.005 125.800,311.384 125.904,310.985 126.077 M339.844 139.345 C 344.881 140.952,345.809 148.183,341.332 150.937 C 339.532 152.044,330.947 152.842,330.088 151.983 C 329.744 151.639,329.641 139.644,329.978 139.099 C 330.315 138.553,337.960 138.744,339.844 139.345 M137.756 144.323 C 137.934 144.969,138.230 145.920,138.414 146.437 C 138.598 146.954,139.186 148.857,139.719 150.666 C 140.253 152.475,140.809 154.307,140.954 154.738 C 141.099 155.168,141.455 156.366,141.744 157.400 C 142.033 158.434,142.559 160.146,142.912 161.204 C 143.934 164.269,144.129 164.171,137.064 164.114 C 132.475 164.078,130.935 163.968,130.820 163.669 C 130.640 163.201,131.163 160.701,131.539 160.232 C 131.682 160.053,131.898 159.413,132.019 158.810 C 132.351 157.157,133.415 153.735,133.717 153.352 C 133.863 153.167,134.083 152.451,134.206 151.762 C 134.414 150.598,136.470 143.910,136.781 143.383 C 137.090 142.862,137.450 143.209,137.756 144.323 M51.701 197.473 C 51.173 198.109,54.755 209.341,57.801 216.601 C 59.253 220.061,63.864 229.508,65.141 231.637 C 65.658 232.498,66.586 234.189,67.204 235.394 C 67.822 236.599,68.552 237.833,68.826 238.137 C 69.101 238.440,69.479 238.957,69.667 239.285 C 73.535 246.053,83.330 258.320,90.173 264.967 C 95.728 270.363,98.613 273.058,100.082 274.220 C 100.941 274.901,101.785 275.613,101.958 275.804 C 102.322 276.207,105.146 278.405,106.181 279.092 C 106.571 279.350,107.108 279.773,107.376 280.031 C 109.840 282.413,121.452 289.621,128.426 293.097 C 130.407 294.085,132.099 294.974,132.185 295.073 C 132.410 295.331,136.215 297.115,137.510 297.568 C 138.113 297.780,139.029 298.134,139.546 298.356 C 142.344 299.556,145.296 300.740,146.124 300.995 C 146.641 301.154,147.839 301.592,148.786 301.969 C 150.694 302.728,152.475 303.279,155.991 304.201 C 160.730 305.444,161.172 305.577,161.873 305.972 C 162.265 306.194,163.322 306.450,164.222 306.541 C 165.121 306.633,166.210 306.836,166.641 306.993 C 167.071 307.149,168.410 307.424,169.616 307.603 C 172.721 308.065,173.114 308.138,175.568 308.700 C 178.138 309.289,178.609 309.348,184.182 309.791 C 186.507 309.975,189.468 310.222,190.760 310.338 C 192.052 310.454,194.377 310.532,195.928 310.510 C 197.478 310.487,200.509 310.449,202.662 310.425 C 212.186 310.316,228.255 308.175,237.275 305.813 C 241.391 304.735,242.724 304.347,245.732 303.351 C 247.455 302.781,249.358 302.218,249.961 302.100 C 250.564 301.982,251.410 301.694,251.840 301.460 C 252.771 300.955,256.545 299.452,256.883 299.452 C 257.013 299.452,258.188 298.958,259.493 298.356 C 260.798 297.753,261.931 297.259,262.011 297.259 C 262.470 297.259,274.844 290.877,275.646 290.226 C 275.904 290.017,276.724 289.537,277.468 289.161 C 278.212 288.785,279.410 288.050,280.131 287.529 C 281.326 286.665,285.661 283.763,286.885 283.007 C 287.164 282.835,287.463 282.620,287.549 282.530 C 287.635 282.440,288.109 282.109,288.602 281.795 C 289.492 281.228,294.699 277.130,297.103 275.104 C 297.792 274.524,298.496 273.946,298.669 273.821 C 302.754 270.862,311.221 262.226,317.609 254.503 C 318.892 252.952,320.032 251.613,320.142 251.527 C 320.252 251.441,321.019 250.384,321.846 249.178 C 322.673 247.972,323.597 246.703,323.899 246.359 C 324.379 245.812,326.440 242.798,327.553 241.015 C 327.762 240.681,328.819 238.998,329.902 237.276 C 332.197 233.626,332.943 232.325,334.213 229.757 C 334.724 228.724,335.279 227.666,335.447 227.408 C 335.614 227.150,336.192 226.022,336.732 224.902 C 337.271 223.782,337.832 222.655,337.978 222.396 C 338.340 221.758,341.171 214.854,342.025 212.529 C 342.405 211.496,342.914 210.227,343.156 209.710 C 343.398 209.193,343.691 208.348,343.807 207.831 C 343.923 207.314,344.130 206.747,344.267 206.571 C 344.404 206.395,344.831 204.985,345.215 203.438 C 345.600 201.892,346.173 200.015,346.490 199.267 C 347.265 197.437,347.381 197.487,342.519 197.551 C 337.493 197.618,337.501 197.616,337.244 198.902 C 337.135 199.447,336.841 200.340,336.591 200.886 C 336.341 201.433,335.973 202.513,335.772 203.288 C 335.370 204.844,332.966 211.171,332.011 213.190 C 331.676 213.898,331.402 214.691,331.402 214.953 C 331.402 215.214,331.190 215.604,330.932 215.818 C 330.673 216.033,330.462 216.344,330.462 216.511 C 330.462 216.842,328.850 220.519,328.156 221.770 C 327.917 222.200,326.997 223.962,326.111 225.685 C 325.226 227.408,324.363 229.029,324.194 229.287 C 324.025 229.546,323.302 230.814,322.586 232.106 C 321.871 233.399,320.884 234.946,320.392 235.545 C 319.901 236.144,319.499 236.781,319.499 236.960 C 319.499 237.140,318.970 237.937,318.324 238.733 C 317.678 239.529,315.847 241.941,314.256 244.094 C 312.664 246.247,310.917 248.483,310.374 249.063 C 309.831 249.643,308.759 250.893,307.993 251.840 C 304.397 256.286,294.876 265.384,288.754 270.225 C 287.435 271.267,286.025 272.434,285.621 272.817 C 285.217 273.200,284.605 273.626,284.260 273.764 C 283.915 273.902,282.717 274.702,281.597 275.541 C 280.478 276.380,278.883 277.487,278.055 278.001 C 277.226 278.515,275.816 279.410,274.922 279.990 C 274.028 280.571,272.310 281.570,271.104 282.211 C 269.898 282.852,268.207 283.790,267.345 284.297 C 265.649 285.294,261.606 287.292,257.820 289.005 C 256.513 289.597,255.161 290.209,254.816 290.365 C 251.628 291.814,242.289 295.067,241.316 295.067 C 241.158 295.067,239.490 295.560,237.609 296.163 C 235.727 296.767,233.121 297.464,231.816 297.713 C 230.511 297.961,228.810 298.301,228.034 298.468 C 227.259 298.635,225.991 298.845,225.215 298.934 C 224.440 299.023,223.383 299.243,222.866 299.422 C 221.994 299.724,220.136 299.968,212.843 300.738 C 204.417 301.626,188.014 301.351,180.266 300.191 C 175.982 299.549,175.917 299.539,172.905 298.974 C 171.441 298.700,169.468 298.342,168.520 298.178 C 167.572 298.015,166.022 297.682,165.074 297.439 C 164.127 297.195,162.444 296.769,161.336 296.491 C 160.227 296.214,159.143 295.839,158.926 295.660 C 158.710 295.480,157.362 295.053,155.931 294.710 C 152.932 293.991,149.846 292.947,148.951 292.348 C 148.612 292.120,148.096 291.934,147.806 291.934 C 147.516 291.934,146.336 291.511,145.184 290.995 C 144.032 290.478,142.956 290.055,142.793 290.055 C 142.473 290.055,132.005 284.885,129.992 283.733 C 129.734 283.585,129.099 283.251,128.583 282.991 C 128.066 282.730,127.268 282.275,126.809 281.979 C 126.351 281.683,125.293 281.027,124.460 280.521 C 123.626 280.015,121.770 278.817,120.334 277.858 C 118.898 276.900,117.277 275.846,116.732 275.517 C 114.463 274.147,105.935 267.447,105.466 266.666 C 105.328 266.437,105.046 266.246,104.840 266.241 C 104.360 266.232,94.964 257.003,91.453 253.093 C 87.503 248.693,82.816 242.679,80.347 238.841 C 79.682 237.807,78.895 236.680,78.598 236.335 C 78.301 235.991,76.756 233.453,75.164 230.697 C 73.572 227.940,72.046 225.333,71.773 224.902 C 71.500 224.471,71.268 224.049,71.257 223.962 C 71.245 223.876,70.557 222.396,69.726 220.673 C 66.795 214.592,66.092 213.088,66.092 212.890 C 66.092 212.780,65.399 210.927,64.551 208.772 C 63.703 206.616,62.919 204.395,62.808 203.836 C 62.697 203.277,62.423 202.396,62.199 201.879 C 61.975 201.363,61.515 200.094,61.178 199.060 L 60.565 197.181 56.284 197.145 C 53.368 197.120,51.907 197.225,51.701 197.473 M118.872 197.280 C 116.988 197.429,116.958 197.682,118.493 200.520 C 123.752 210.242,131.369 219.882,138.805 226.225 C 142.976 229.783,146.338 232.307,148.734 233.682 C 149.194 233.945,150.189 234.614,150.946 235.168 C 152.278 236.143,159.696 239.898,162.569 241.051 C 163.344 241.362,164.119 241.771,164.291 241.959 C 164.464 242.148,165.380 242.493,166.327 242.726 C 167.275 242.960,168.191 243.260,168.363 243.393 C 168.536 243.526,169.875 243.955,171.339 244.345 C 172.803 244.735,174.213 245.219,174.471 245.421 C 174.891 245.748,177.941 246.571,179.178 246.690 C 180.669 246.834,183.006 247.234,184.652 247.627 C 185.685 247.873,187.729 248.159,189.193 248.261 C 190.658 248.363,192.631 248.511,193.579 248.590 C 195.982 248.789,203.813 248.804,205.325 248.612 C 206.014 248.524,207.917 248.358,209.554 248.241 C 211.190 248.125,213.396 247.836,214.455 247.598 C 215.514 247.360,216.712 247.098,217.118 247.015 C 222.631 245.885,228.110 244.332,231.010 243.077 C 231.699 242.779,232.968 242.273,233.829 241.954 C 248.063 236.671,264.798 223.230,274.032 209.665 C 277.194 205.019,280.971 198.505,280.971 197.697 C 280.971 197.265,270.392 197.277,269.583 197.710 C 268.708 198.178,267.485 199.734,266.672 201.410 C 263.839 207.255,252.393 218.885,244.009 224.439 C 240.459 226.790,240.110 226.998,237.275 228.440 C 236.241 228.965,235.184 229.564,234.926 229.770 C 234.667 229.976,233.281 230.593,231.844 231.140 C 230.408 231.688,228.998 232.253,228.712 232.398 C 227.388 233.064,224.746 233.941,219.734 235.377 C 214.199 236.962,206.059 238.061,199.374 238.126 C 195.632 238.162,185.418 237.338,184.790 236.950 C 184.677 236.881,183.978 236.747,183.236 236.654 C 181.221 236.401,173.725 234.358,171.534 233.465 C 170.479 233.035,169.193 232.509,168.677 232.297 C 165.972 231.188,157.602 226.854,156.415 225.947 C 155.662 225.372,154.983 224.902,154.907 224.902 C 154.033 224.902,146.589 218.830,142.365 214.670 C 138.538 210.901,137.729 210.005,135.483 207.048 C 134.633 205.928,133.857 204.941,133.759 204.855 C 133.569 204.688,131.490 201.417,130.315 199.436 C 129.116 197.417,125.575 196.749,118.872 197.280 M93.005 204.901 C 84.612 209.065,83.391 210.550,84.793 214.891 C 85.954 218.486,89.377 220.612,92.332 219.574 C 96.332 218.168,96.196 218.365,94.917 215.832 C 93.761 213.541,93.511 213.384,92.373 214.225 C 90.983 215.254,88.214 215.305,88.072 214.305 C 87.919 213.227,87.873 213.258,95.850 209.238 C 101.008 206.638,102.517 206.309,102.683 207.747 C 102.784 208.622,102.219 209.101,98.978 210.889 C 98.119 211.363,98.005 211.563,98.179 212.299 C 98.482 213.580,99.714 215.818,100.117 215.818 C 100.577 215.818,103.244 214.345,104.540 213.375 C 107.378 211.251,106.606 205.604,103.178 203.411 C 100.406 201.638,99.238 201.809,93.005 204.901 M303.103 205.002 C 302.794 205.696,302.410 206.509,302.250 206.809 C 301.836 207.579,301.843 207.590,303.019 208.148 C 303.763 208.501,304.134 208.926,304.263 209.569 C 304.441 210.457,304.500 210.484,306.100 210.413 C 307.515 210.349,308.180 210.548,310.728 211.799 C 317.335 215.041,318.819 215.558,319.896 214.994 C 320.689 214.578,322.631 211.515,322.631 210.680 C 322.631 210.105,320.811 209.682,320.345 210.148 C 319.786 210.707,319.048 210.557,316.783 209.420 C 315.606 208.830,313.375 207.781,311.825 207.089 C 309.205 205.920,308.994 205.758,308.849 204.795 L 308.692 203.759 306.178 203.749 L 303.664 203.739 303.103 205.002 M303.054 213.216 C 302.709 213.283,302.133 213.399,301.773 213.475 C 300.792 213.681,299.945 215.796,300.201 217.399 L 300.407 218.691 299.500 218.491 C 298.560 218.285,298.298 218.562,296.713 221.444 C 296.219 222.341,296.578 222.718,299.295 224.159 C 300.157 224.616,301.298 225.323,301.831 225.729 C 302.364 226.136,302.885 226.468,302.990 226.468 C 303.094 226.468,303.806 226.891,304.572 227.408 C 305.337 227.925,306.051 228.348,306.157 228.348 C 306.263 228.348,307.018 228.807,307.834 229.369 C 310.428 231.153,310.951 231.347,311.587 230.764 C 312.193 230.209,313.715 227.464,313.516 227.284 C 313.200 226.999,307.433 223.425,306.387 222.866 C 303.524 221.337,301.331 219.566,301.331 218.782 C 301.331 217.793,302.569 217.728,304.155 218.635 C 304.756 218.977,305.881 219.615,306.656 220.051 C 307.431 220.487,308.912 221.406,309.945 222.092 C 310.979 222.779,312.273 223.549,312.821 223.803 C 313.369 224.058,313.906 224.409,314.014 224.584 C 314.371 225.161,315.435 224.920,315.721 224.197 C 315.874 223.810,316.364 223.007,316.810 222.413 C 317.641 221.306,317.595 221.069,316.420 220.402 C 314.158 219.119,311.909 217.771,310.478 216.842 C 307.680 215.025,303.715 213.089,303.054 213.216 M104.435 217.742 C 103.589 218.280,102.532 218.972,102.086 219.278 C 101.343 219.788,99.251 221.177,96.006 223.315 C 95.317 223.769,94.253 224.375,93.640 224.663 C 91.414 225.709,91.272 226.156,92.539 228.136 C 94.063 230.518,93.931 230.514,97.345 228.273 C 102.910 224.620,103.006 224.568,103.917 224.731 C 104.390 224.815,105.011 225.170,105.297 225.519 C 106.025 226.410,106.386 226.334,108.603 224.824 C 111.026 223.173,110.897 222.396,108.202 222.396 C 107.245 222.396,107.207 221.687,108.130 221.074 L 108.821 220.616 107.800 219.024 C 106.273 216.644,106.202 216.617,104.435 217.742 M289.196 224.503 C 287.947 226.160,287.898 226.302,288.383 226.838 C 289.162 227.699,289.565 227.549,290.965 225.877 C 292.387 224.179,292.544 223.517,291.642 223.034 C 290.726 222.544,290.627 222.603,289.196 224.503 M114.504 223.944 C 113.876 224.638,115.832 228.023,116.866 228.031 C 118.271 228.041,118.533 226.882,117.445 225.463 C 115.704 223.192,115.350 223.009,114.504 223.944 M292.482 226.970 C 291.044 229.089,291.024 228.891,292.808 230.277 C 300.963 236.616,304.526 239.311,304.750 239.311 C 305.517 239.311,308.280 235.519,307.663 235.313 C 307.478 235.252,306.436 234.512,305.347 233.669 C 304.258 232.826,302.240 231.275,300.861 230.222 C 299.483 229.170,298.075 228.071,297.731 227.780 C 294.077 224.685,294.037 224.679,292.482 226.970 M111.125 226.468 C 110.910 226.813,110.618 227.095,110.477 227.095 C 110.335 227.095,108.501 228.469,106.402 230.149 C 104.302 231.829,101.765 233.813,100.764 234.559 C 98.427 236.299,98.389 236.453,99.819 238.323 C 101.436 240.436,101.589 240.427,104.464 238.044 C 105.842 236.902,107.128 235.910,107.321 235.838 C 108.090 235.555,114.618 230.034,114.807 229.507 C 114.937 229.144,114.698 228.532,114.134 227.785 C 112.588 225.735,111.799 225.389,111.125 226.468 M118.458 231.680 C 117.693 232.283,117.326 232.408,117.069 232.151 C 116.550 231.632,115.583 232.635,115.583 233.693 C 115.583 234.284,115.262 234.825,114.565 235.407 C 112.929 236.774,107.989 241.577,107.017 242.745 C 105.173 244.961,108.182 249.905,110.366 248.250 C 110.811 247.913,110.895 247.587,110.730 246.837 C 110.484 245.718,111.938 244.140,118.200 238.721 C 118.931 238.089,119.198 238.013,119.666 238.305 C 120.588 238.881,121.753 237.797,121.240 236.840 C 120.906 236.216,120.974 236.027,121.825 235.214 C 123.026 234.066,123.066 234.272,121.279 232.419 C 119.512 230.585,119.764 230.651,118.458 231.680 M285.743 234.616 C 283.211 236.506,282.126 239.407,283.124 241.617 C 284.008 243.573,289.443 248.667,292.128 250.056 C 294.834 251.455,299.779 247.591,299.758 244.094 C 299.744 241.667,299.080 240.803,292.772 234.992 C 290.962 233.325,287.707 233.151,285.743 234.616 M126.129 236.701 C 125.653 237.177,125.994 237.953,127.238 239.221 C 128.691 240.701,129.478 240.899,130.003 239.918 C 130.635 238.737,127.061 235.769,126.129 236.701 M288.597 237.808 C 289.140 238.187,291.104 239.984,292.961 241.801 C 296.497 245.263,297.014 246.259,295.372 246.451 C 294.454 246.558,286.296 239.025,286.296 238.070 C 286.296 236.913,287.172 236.814,288.597 237.808 M123.414 239.576 C 123.414 239.722,122.604 240.701,121.613 241.752 C 111.220 252.773,112.107 251.591,113.277 252.865 C 115.552 255.340,115.780 255.394,117.162 253.798 C 117.722 253.152,119.756 250.932,121.683 248.865 C 127.577 242.541,128.357 241.504,127.217 241.504 C 127.069 241.504,126.470 241.012,125.886 240.411 C 124.924 239.421,123.414 238.911,123.414 239.576 M272.820 241.693 C 270.709 243.083,267.189 245.916,267.189 246.226 C 267.189 246.419,272.341 252.980,274.329 255.317 C 275.472 256.662,279.163 261.375,279.639 262.099 C 280.232 262.999,280.764 262.988,281.835 262.056 C 282.307 261.645,283.111 260.957,283.621 260.528 L 284.547 259.748 282.599 257.450 C 281.528 256.187,280.269 254.602,279.803 253.929 L 278.954 252.705 279.783 252.038 C 283.293 249.212,283.346 247.297,280.019 243.495 C 277.094 240.153,275.693 239.802,272.820 241.693 M276.515 245.659 C 278.211 247.409,278.546 249.961,277.080 249.961 C 276.119 249.961,272.986 245.523,273.619 245.060 C 274.553 244.378,275.454 244.564,276.515 245.659 M130.378 246.514 C 128.044 246.866,121.522 255.311,121.479 258.037 C 121.423 261.629,126.779 264.876,130.101 263.264 C 132.434 262.133,133.139 260.179,131.590 259.135 C 130.127 258.149,129.664 258.224,128.171 259.687 C 126.683 261.145,125.601 261.035,125.613 259.425 C 125.620 258.524,129.649 252.817,131.933 250.474 C 133.483 248.884,134.654 250.172,133.492 252.191 C 132.582 253.773,132.633 254.021,134.114 255.208 C 135.767 256.531,135.964 256.497,136.819 254.733 C 138.240 251.800,137.135 248.473,134.377 247.384 C 134.119 247.282,133.414 246.999,132.811 246.756 C 132.103 246.470,131.241 246.385,130.378 246.514 M253.807 254.033 C 251.594 255.092,250.950 255.756,251.446 256.466 C 251.654 256.765,252.253 257.854,252.777 258.888 C 253.300 259.922,254.203 261.613,254.783 262.647 C 255.753 264.377,258.517 269.648,260.225 273.026 C 261.018 274.593,261.064 274.597,263.809 273.344 C 265.632 272.511,265.637 272.326,263.928 269.052 C 263.169 267.596,261.926 265.208,261.167 263.743 C 255.151 252.139,255.846 253.056,253.807 254.033 M142.357 255.046 C 141.520 255.285,139.076 257.779,139.076 258.395 C 139.076 259.331,143.135 261.119,143.156 260.193 C 143.177 259.280,144.982 257.627,145.560 257.990 C 146.388 258.512,146.246 260.429,145.304 261.437 C 144.586 262.205,144.437 262.232,141.425 262.138 C 137.489 262.016,135.317 263.145,135.317 265.314 C 135.317 265.496,135.090 265.991,134.812 266.415 C 133.457 268.484,135.434 270.848,138.407 270.714 C 139.932 270.646,140.073 270.695,139.929 271.245 C 139.749 271.933,140.190 272.363,142.160 273.422 C 143.804 274.306,143.798 274.310,145.681 270.791 C 146.418 269.413,147.674 267.078,148.473 265.603 C 150.942 261.040,151.097 260.499,150.395 258.912 C 149.226 256.268,145.074 254.271,142.357 255.046 M265.741 255.109 C 261.531 256.945,262.642 262.763,267.208 262.792 C 271.646 262.821,272.677 256.189,268.392 255.173 C 267.935 255.064,267.371 254.909,267.140 254.829 C 266.908 254.748,266.279 254.874,265.741 255.109 M155.996 258.973 C 155.452 260.305,154.665 262.138,154.246 263.047 C 153.827 263.956,153.485 264.833,153.485 264.995 C 153.485 265.157,153.210 265.823,152.875 266.474 C 151.500 269.144,148.786 275.480,148.786 276.020 C 148.786 276.359,149.144 276.743,149.648 276.947 C 150.121 277.138,150.956 277.513,151.503 277.781 C 152.618 278.328,153.485 277.942,153.485 276.899 C 153.485 276.597,153.682 276.185,153.924 275.985 C 154.165 275.784,154.449 275.277,154.554 274.858 C 154.712 274.228,156.827 269.198,158.635 265.153 C 159.939 262.235,161.316 258.853,161.316 258.567 C 161.316 258.490,160.822 258.213,160.219 257.953 C 159.616 257.692,158.641 257.270,158.053 257.015 L 156.983 256.552 155.996 258.973 M245.732 262.201 C 244.016 262.601,243.980 262.614,242.881 263.196 C 239.840 264.808,240.044 269.206,243.487 276.273 C 245.061 279.503,246.613 280.317,249.951 279.666 C 255.181 278.646,256.320 274.952,253.386 268.523 C 253.053 267.793,252.780 267.046,252.780 266.864 C 252.780 264.178,248.733 261.501,245.732 262.201 M175.771 264.253 C 175.194 264.549,174.572 265.120,174.390 265.520 C 174.207 265.921,173.959 266.249,173.838 266.249 C 173.562 266.249,172.744 268.940,172.266 271.417 C 172.067 272.451,171.709 274.143,171.471 275.176 C 170.717 278.450,170.572 281.983,171.146 283.093 C 172.448 285.611,178.602 286.908,180.961 285.162 C 182.881 283.740,184.303 278.947,182.891 278.658 C 180.347 278.138,179.170 278.161,179.170 278.732 C 179.170 279.045,179.075 279.396,178.958 279.512 C 178.841 279.629,178.524 280.393,178.253 281.209 C 177.853 282.416,177.609 282.711,176.950 282.788 C 175.345 282.975,175.225 281.746,176.317 276.273 C 176.472 275.497,176.755 274.017,176.947 272.984 C 177.883 267.949,178.718 266.444,180.150 267.210 C 180.851 267.586,180.853 267.668,180.261 271.926 C 180.090 273.162,180.138 273.199,183.036 274.091 C 184.602 274.572,184.776 274.363,185.170 271.539 C 185.574 268.643,185.369 267.023,184.481 266.077 C 182.691 264.173,177.889 263.167,175.771 264.253 M143.461 264.996 C 143.461 265.513,143.319 265.936,143.145 265.936 C 142.972 265.936,142.607 266.491,142.336 267.170 C 141.569 269.087,139.649 270.067,139.233 268.755 C 138.839 267.516,140.486 264.683,141.601 264.683 C 141.914 264.683,142.258 264.542,142.365 264.370 C 142.789 263.683,143.461 264.067,143.461 264.996 M247.461 267.110 C 248.518 269.396,248.670 269.754,249.485 271.887 C 249.782 272.662,250.221 273.760,250.462 274.325 C 251.020 275.634,251.018 276.412,250.455 276.879 C 249.988 277.266,248.708 276.744,248.708 276.166 C 248.708 276.018,248.501 275.453,248.247 274.910 C 246.768 271.740,244.726 266.128,244.863 265.607 C 245.234 264.185,246.427 264.875,247.461 267.110 M235.435 266.327 C 235.191 266.715,234.896 267.349,234.780 267.737 C 234.482 268.738,233.792 268.609,233.398 267.478 C 233.151 266.768,232.916 266.559,232.506 266.681 C 232.200 266.772,231.268 267.014,230.435 267.218 C 228.779 267.625,228.394 268.120,228.923 269.168 C 229.113 269.544,229.564 271.049,229.926 272.514 C 230.595 275.221,231.710 279.337,232.671 282.644 L 233.203 284.473 234.880 284.282 C 238.105 283.913,238.112 283.895,236.816 279.392 C 235.191 273.744,235.189 272.253,236.810 271.415 C 237.924 270.839,237.948 270.512,237.075 267.746 C 236.350 265.449,236.117 265.247,235.435 266.327 M222.396 266.452 C 219.680 266.861,219.406 267.065,219.527 268.588 C 219.592 269.396,219.506 270.008,219.329 270.008 C 218.906 270.008,218.616 270.840,218.837 271.417 C 218.937 271.676,219.206 271.887,219.436 271.887 C 220.148 271.887,220.759 274.337,221.935 281.911 C 222.055 282.686,222.259 283.461,222.388 283.634 C 222.518 283.806,222.713 284.323,222.823 284.784 C 223.155 286.175,225.068 286.513,228.583 285.800 C 229.782 285.557,229.422 283.477,228.180 283.477 C 227.308 283.477,226.795 281.979,225.984 277.056 C 225.200 272.305,225.110 271.261,225.486 271.261 C 225.670 271.261,225.971 270.979,226.155 270.634 C 226.590 269.822,226.053 268.755,225.210 268.755 C 224.800 268.755,224.539 268.473,224.412 267.894 C 224.018 266.093,224.151 266.188,222.396 266.452 M162.370 267.790 C 158.921 269.893,160.327 275.124,164.342 275.124 C 166.802 275.124,168.246 273.671,168.284 271.156 C 168.332 267.982,165.085 266.134,162.370 267.790 M192.366 270.374 C 191.127 270.724,189.507 271.851,189.507 272.363 C 189.507 272.560,189.214 273.653,188.857 274.792 C 187.932 277.739,188.054 285.672,189.037 286.458 C 192.970 289.603,199.530 288.340,199.530 284.437 C 199.530 284.059,199.659 283.509,199.816 283.215 C 200.231 282.440,200.491 275.394,200.159 273.929 C 199.541 271.202,195.678 269.440,192.366 270.374 M211.590 270.438 C 211.073 270.666,210.456 271.085,210.220 271.369 C 209.631 272.079,208.927 272.020,208.927 271.261 C 208.927 270.581,207.343 270.403,205.169 270.838 L 204.151 271.041 204.321 274.205 C 204.718 281.582,205.225 288.033,205.424 288.229 C 205.834 288.630,209.822 288.118,210.005 287.641 C 210.100 287.392,210.034 286.248,209.858 285.098 C 209.168 280.589,209.307 272.996,210.082 272.886 C 211.381 272.701,211.645 273.766,212.044 280.801 C 212.485 288.573,212.181 287.847,214.966 287.769 L 217.228 287.706 217.128 285.043 C 216.967 280.752,216.189 272.705,215.849 271.810 C 215.321 270.424,213.186 269.736,211.590 270.438 M195.457 273.296 C 195.736 273.632,195.789 274.493,195.644 276.350 C 195.534 277.772,195.375 279.922,195.292 281.128 C 194.999 285.374,194.644 286.094,193.221 285.333 C 192.558 284.978,192.560 285.114,193.107 277.797 C 193.449 273.230,194.203 271.785,195.457 273.296 " stroke="none" fill="#3c64a8" fill-rule="evenodd"></path></g></svg>