<svg xmlns="http://www.w3.org/2000/svg" viewBox="0 0 63.95 57.26"><defs><style>.cls-1{fill:#fff;}</style></defs><title>Recurso 4</title><g id="Capa_2" data-name="Capa 2"><g id="Capa_1-2" data-name="Capa 1"><path class="cls-1" d="M30.72,14.1,30,16.34a2.75,2.75,0,0,0,.89-.87c.64-.77,1.25-1.56,1.88-2.35.07-.09.13-.22.27-.2s.13.18.17.28A16.21,16.21,0,0,1,33.79,16a6,6,0,0,0,1-1.49c1.58-3.28,1-6.35-1.16-9.21a12.76,12.76,0,0,0-5.08-4.11A6.62,6.62,0,0,0,28,.94c-.64-.2-.71-.18-1,.38a5.84,5.84,0,0,0-.65,2.45c0,.1,0,.21,0,.31a.25.25,0,0,1-.3.2A.21.21,0,0,1,25.72,4a6.29,6.29,0,0,1,.78-3c.05-.08.15-.15.09-.24s-.21-.07-.31,0A1.78,1.78,0,0,0,25.05,1.9a6.73,6.73,0,0,0-.52,2.21c0,.1,0,.2,0,.3s-.15.18-.29.17a.2.2,0,0,1-.2-.21A4.88,4.88,0,0,1,25.15.92a2.26,2.26,0,0,1,1.78-.6.66.66,0,0,0,.37,0,3.64,3.64,0,0,1,3.23.21,13.3,13.3,0,0,1,4.82,3.64,9.9,9.9,0,0,1,2.17,3.78A7.15,7.15,0,0,1,37,13a13.68,13.68,0,0,1-2.84,3.82A1.69,1.69,0,0,0,33.56,18a9.12,9.12,0,0,1-.7,2.32l-.06.24c.28-.06.35-.32.61-.39.11.36-.1.67-.15,1a17.91,17.91,0,0,1-1,4.19,14.52,14.52,0,0,1-1.11,2.32,3.18,3.18,0,0,1-2.46,1.53,4.84,4.84,0,0,1-1.95-.31,11.79,11.79,0,0,1-2.61-1.43,1.25,1.25,0,0,1-.58-1.61,21.07,21.07,0,0,1,2.77-5.32q1.95-2.94,3.92-5.86A1.39,1.39,0,0,1,30.72,14.1Zm4.72.4a1.08,1.08,0,0,0,.16-.13c.11-.17.24-.35.34-.53a7,7,0,0,0,.29-7.63,13.43,13.43,0,0,0-5-4.87A6.61,6.61,0,0,0,28.68.41,1.25,1.25,0,0,0,28,.5c.34.14.63.23.9.36a13.75,13.75,0,0,1,5.55,4.69,9.13,9.13,0,0,1,1.64,7A10.28,10.28,0,0,1,35.44,14.5Zm-5.69,4.66c.56,0,.92-.28.92-.73a.85.85,0,0,0-.88-.79.77.77,0,0,0-.86.75A.75.75,0,0,0,29.75,19.16Z"/><path class="cls-1" d="M22.43,30.61a7,7,0,0,1,.46-2.76c.17-.44.35-.48.72-.17a8.46,8.46,0,0,0,3.26,1.79,4.72,4.72,0,0,0,2.66,0c.33-.1.49,0,.48.32,0,.62-.05,1.25-.13,1.87a1,1,0,0,1-.83.88,10.39,10.39,0,0,1-5.72.13,1.05,1.05,0,0,1-.84-.87A8.38,8.38,0,0,1,22.43,30.61Z"/><path class="cls-1" d="M26.38,37.65a1.76,1.76,0,0,1-1.16-.56A9.36,9.36,0,0,1,23,33.92a.9.9,0,0,1-.07-.27c-.06-.46.12-.62.62-.52a12.09,12.09,0,0,0,2.09.29,9,9,0,0,0,3.64-.65c.53-.21.67-.17,1,.25l.53.6a.7.7,0,0,1,0,1,10.1,10.1,0,0,1-3.79,2.87c-.17.06-.34.1-.52.15A1.23,1.23,0,0,1,26.38,37.65Z"/><path class="cls-1" d="M33.85,35.83a5.54,5.54,0,0,1-1,3.4,1.35,1.35,0,0,1-1.16.57,7.86,7.86,0,0,1-2.83-.7l-1.46-.56c-.21-.09-.42-.19-.42-.43s.23-.33.44-.41a7.77,7.77,0,0,0,3.31-2.37,5.16,5.16,0,0,0,.51-.8A.63.63,0,0,1,32,34.2c.37.08.74.13,1.1.21.61.14.75.3.76.88Z"/><path class="cls-1" d="M34.18,35.93a5.1,5.1,0,0,0-.1-1,.56.56,0,0,1,0-.34A1.81,1.81,0,0,1,36,34.05a5,5,0,0,1,1.35,1.54c.19.3.32.63.51.93a1.3,1.3,0,0,1-.53,1.85,8.48,8.48,0,0,1-3.61,1.3c-.16,0-.33.08-.46-.08s0-.29.09-.42A6.32,6.32,0,0,0,34.18,35.93Z"/><path class="cls-1" d="M40.44,33.83a4.88,4.88,0,0,1-1.35,2.83.51.51,0,0,1-.85-.14,8,8,0,0,0-1.69-2.44c-.3-.3-.28-.56,0-.85a4.13,4.13,0,0,1,1.83-1A1.58,1.58,0,0,1,40.44,33.83Z"/><path class="cls-1" d="M42.1,28.92a7.5,7.5,0,0,1-.79,3.59,1.38,1.38,0,0,1-.14.27c-.11.15-.15.38-.36.39s-.22-.23-.31-.37a1.8,1.8,0,0,0-1-.78c-.24-.07-.34-.2-.27-.43a17.6,17.6,0,0,1,1.22-3.74,2.08,2.08,0,0,1,.36-.48.65.65,0,0,1,1.16.26A3.52,3.52,0,0,1,42.1,28.92Z"/><path class="cls-1" d="M39.07,30.38s0,0,0-.05a29.82,29.82,0,0,1,0-3,.92.92,0,0,1,.21-.46.49.49,0,0,1,.68-.16c.28.14.62.29.48.66-.38,1-.78,1.95-1.18,2.92A.13.13,0,0,1,39.07,30.38Z"/><path class="cls-1" d="M32.84,25.57a3.25,3.25,0,0,1,1.29-2.14,4.3,4.3,0,0,1,3-.71c.11,0,.25,0,.25.15s-.15.12-.25.15a8.07,8.07,0,0,0-3.2,1.47C33.49,24.8,33.23,25.23,32.84,25.57Z"/><path class="cls-1" d="M33.59,22.63c.42-2.18,2.2-3.22,4.45-2.91.08,0,.19,0,.2.09s-.11.12-.2.13a7.08,7.08,0,0,0-2.66.92,4.18,4.18,0,0,0-1.52,1.49A.52.52,0,0,1,33.59,22.63Z"/><path class="cls-1" d="M35.26,25.78a3,3,0,0,1,.76.07c.09,0,.23,0,.23.11s-.16.12-.26.13a5.4,5.4,0,0,0-2.43.71,5,5,0,0,0-1.65,1.49c-.06.07-.1.23-.23.17s0-.18,0-.28A3.51,3.51,0,0,1,35.26,25.78Z"/><path class="cls-1" d="M0,56.88c.05-.14.09-.27.14-.39q2.52-5.85,5-11.7A.69.69,0,0,1,6,44.3c.63,0,1.27,0,1.89,0a.67.67,0,0,1,.76.48Q11,50.43,13.38,56.07c.07.16.16.32.23.48l.13,0V43.42c.94,0,1.85,0,2.75,0,.07,0,.18.16.19.26a4.56,4.56,0,0,1,0,.64v12c0,.67,0,.67-.69.67-1.68,0-3.35,0-5,0-.45,0-.69-.11-.82-.52-.18-.56-.45-1.09-.65-1.64a.53.53,0,0,0-.57-.4H4.65a.51.51,0,0,0-.57.39c-.21.61-.44,1.22-.7,1.82A.56.56,0,0,1,3,57c-.93,0-1.86,0-2.79,0A.68.68,0,0,1,0,56.88Zm6.89-9.17H6.75L5.12,52H8.5Z"/><path class="cls-1" d="M30.85,49.32a2,2,0,0,0,.26-.28,3.39,3.39,0,0,1,3.63-1.1A2.83,2.83,0,0,1,37,50.45,17.65,17.65,0,0,1,37.07,53c0,1.19,0,2.37,0,3.55,0,.34-.1.46-.47.45-.67,0-1.33,0-2,0-.38,0-.48-.12-.48-.45,0-1.52,0-3,0-4.56A4.13,4.13,0,0,0,34,51.1a1.14,1.14,0,0,0-.9-.9,1.35,1.35,0,0,0-1.35.38,2.2,2.2,0,0,0-.58,1.62c0,1.42,0,2.85,0,4.28,0,.38-.12.51-.53.49-.6,0-1.2,0-1.79,0s-.63-.09-.62-.55c0-1.53,0-3.07,0-4.6a2.86,2.86,0,0,0-.1-.77,1.13,1.13,0,0,0-1-.88,1.23,1.23,0,0,0-1.34.59,4.28,4.28,0,0,0-.42,1.62c-.06,1.37,0,2.73,0,4.1,0,.39-.14.51-.55.49-.64,0-1.29,0-1.94,0-.33,0-.47-.09-.47-.42,0-2.68,0-5.37,0-8,0-.29.09-.42.42-.42.67,0,1.33,0,2,0,.33,0,.45.12.43.41a2.47,2.47,0,0,0,.06.75,3.43,3.43,0,0,1,2.81-1.42A3,3,0,0,1,30.85,49.32Z"/><path class="cls-1" d="M40.73,53.29A1.74,1.74,0,0,0,42,54.86a2.62,2.62,0,0,0,3-.7l2,1.22a3.84,3.84,0,0,1-1.9,1.47,5.85,5.85,0,0,1-4.66-.15,4.17,4.17,0,0,1-2.49-3.54,5,5,0,0,1,.48-2.87,4.91,4.91,0,0,1,5.15-2.46,4.19,4.19,0,0,1,3.66,3.47c.09.51.08,1,.13,1.56,0,.34-.12.44-.49.44-1.84,0-3.68,0-5.52,0Zm3.92-1.8a1.68,1.68,0,0,0-1.84-1.77,1.88,1.88,0,0,0-2,1.77Z"/><path class="cls-1" d="M57.18,50.76l-1.44-1.5c.14-.12.26-.24.4-.34A6.33,6.33,0,0,1,61.41,48a2.88,2.88,0,0,1,2.32,2.6,31.82,31.82,0,0,1,.21,3.52c0,.83,0,1.66,0,2.49,0,.28-.1.39-.4.38-.58,0-1.16,0-1.74,0-.42,0-.58-.12-.54-.5a3.31,3.31,0,0,0-.06-.51,3,3,0,0,1-2.05,1.16,4,4,0,0,1-2.79-.56,2.51,2.51,0,0,1,.06-4.22,6.27,6.27,0,0,1,2.81-.82c.53-.06,1.06-.08,1.59-.09.3,0,.35-.13.32-.38-.07-.67-.63-1.11-1.49-1.16a3.34,3.34,0,0,0-2,.54Zm4.14,2.76c-.08-.16-.16-.46-.24-.46a4.16,4.16,0,0,0-2.79.55.89.89,0,0,0,.39,1.58A1.94,1.94,0,0,0,61.32,53.52Z"/><path class="cls-1" d="M47.31,55.87l1.51-1.54a14.2,14.2,0,0,0,1.77.79,2.54,2.54,0,0,0,1.16,0,.62.62,0,0,0,.53-.64.65.65,0,0,0-.45-.7c-.46-.16-.94-.29-1.41-.43-.26-.09-.54-.14-.8-.24a2.49,2.49,0,0,1-.94-4.31c1.53-1.38,5.09-1.24,6.47.28l-1.46,1.47A13.72,13.72,0,0,0,52,49.86,1.83,1.83,0,0,0,51,50a.76.76,0,0,0-.42.57.79.79,0,0,0,.42.59,7.24,7.24,0,0,0,1.17.36,13.48,13.48,0,0,1,1.4.46,2.59,2.59,0,0,1,.33,4.6A6,6,0,0,1,47.31,55.87Z"/><path class="cls-1" d="M21,48.09V49c0,2.47,0,4.94,0,7.41,0,.41-.11.55-.55.52-.65,0-1.3,0-1.94,0-.31,0-.45-.08-.45-.39,0-2.7,0-5.4,0-8.1,0-.13.17-.37.26-.37C19.25,48.08,20.11,48.09,21,48.09Z"/><path class="cls-1" d="M21.25,45.14a1.64,1.64,0,0,1-1.67,1.61,1.62,1.62,0,0,1-1.66-1.56,1.67,1.67,0,0,1,3.33,0Z"/></g></g></svg>