<svg xmlns="http://www.w3.org/2000/svg" xmlns:xlink="http://www.w3.org/1999/xlink" viewBox="0 0 112.46 130.54"><defs><style>.cls-1{fill:url(#Degradado_sin_nombre_3);}.cls-2{fill:url(#Degradado_sin_nombre_3-2);}.cls-3{fill:url(#Degradado_sin_nombre_3-3);}.cls-4{fill:url(#Degradado_sin_nombre_3-4);}.cls-5{fill:url(#Degradado_sin_nombre_3-5);}.cls-6{fill:url(#Degradado_sin_nombre_3-6);}.cls-7{fill:url(#Degradado_sin_nombre_3-7);}.cls-8{fill:url(#Degradado_sin_nombre_3-8);}.cls-9{fill:url(#Degradado_sin_nombre_3-9);}.cls-10{fill:url(#Degradado_sin_nombre_3-10);}.cls-11{fill:url(#Degradado_sin_nombre_3-11);}.cls-12{fill:url(#Degradado_sin_nombre_3-12);}.cls-13{fill:url(#Degradado_sin_nombre_3-13);}.cls-14{fill:url(#Degradado_sin_nombre_3-14);}</style><linearGradient id="Degradado_sin_nombre_3" y1="51.72" x2="111.7" y2="51.72" gradientUnits="userSpaceOnUse"><stop offset="0" stop-color="#005fa9"/><stop offset="1" stop-color="#0061ad"/></linearGradient><linearGradient id="Degradado_sin_nombre_3-2" x1="1.34" y1="51.72" x2="110.36" y2="51.72" xlink:href="#Degradado_sin_nombre_3"/><linearGradient id="Degradado_sin_nombre_3-3" x1="51.62" y1="53.21" x2="54.57" y2="53.21" xlink:href="#Degradado_sin_nombre_3"/><linearGradient id="Degradado_sin_nombre_3-4" x1="50.06" y1="33.11" x2="65.72" y2="33.11" xlink:href="#Degradado_sin_nombre_3"/><linearGradient id="Degradado_sin_nombre_3-5" x1="0.67" y1="51.72" x2="111.03" y2="51.72" xlink:href="#Degradado_sin_nombre_3"/><linearGradient id="Degradado_sin_nombre_3-6" x1="55.51" y1="92.2" x2="56.36" y2="92.2" xlink:href="#Degradado_sin_nombre_3"/><linearGradient id="Degradado_sin_nombre_3-7" x1="48.31" y1="92.2" x2="59.97" y2="92.2" xlink:href="#Degradado_sin_nombre_3"/><linearGradient id="Degradado_sin_nombre_3-8" x1="2.67" y1="117.43" x2="31.33" y2="117.43" xlink:href="#Degradado_sin_nombre_3"/><linearGradient id="Degradado_sin_nombre_3-9" x1="41.14" y1="121.5" x2="66.33" y2="121.5" xlink:href="#Degradado_sin_nombre_3"/><linearGradient id="Degradado_sin_nombre_3-10" x1="67.74" y1="121.75" x2="83.97" y2="121.75" xlink:href="#Degradado_sin_nombre_3"/><linearGradient id="Degradado_sin_nombre_3-11" x1="97.53" y1="121.66" x2="112.46" y2="121.66" xlink:href="#Degradado_sin_nombre_3"/><linearGradient id="Degradado_sin_nombre_3-12" x1="83.89" y1="121.73" x2="97.35" y2="121.73" xlink:href="#Degradado_sin_nombre_3"/><linearGradient id="Degradado_sin_nombre_3-13" x1="33.77" y1="121.77" x2="38.81" y2="121.77" xlink:href="#Degradado_sin_nombre_3"/><linearGradient id="Degradado_sin_nombre_3-14" x1="33.43" y1="108.11" x2="39.15" y2="108.11" xlink:href="#Degradado_sin_nombre_3"/></defs><title>Recurso 3</title><g id="Capa_2" data-name="Capa 2"><g id="Capa_1-2" data-name="Capa 1"><path class="cls-1" d="M110.78,96.29c-2.92-5.46-50.85-93.08-51.33-94l0-.06C58.39.76,57.23,0,56,0h0c-2.11,0-3.6,2.18-3.7,2.33-.48.88-48.4,88.5-51.33,94-1,1.91-1.19,3.52-.51,4.81,1.05,2,3.76,2.33,4,2.35H47.71L55.91,93,64,103.45h43.42c.12,0,2.83-.33,3.89-2.34C112,99.81,111.8,98.2,110.78,96.29Zm-3.44,6.48h-43l-8-10.29h0a6.8,6.8,0,0,1-.8-.07l-8.13,10.35h-43s-5.81-.64-2.85-6.16,51.33-94,51.33-94,3-4.45,6,0c0,0,48.37,88.44,51.33,94S107.34,102.77,107.34,102.77Z"/><path class="cls-2" d="M49,90.16c-.37-.15-.72-.33-.72-.77s.39-.62.74-.76a13.33,13.33,0,0,0,5.63-4.36,8.79,8.79,0,0,0,.86-1.45,1,1,0,0,1,1.28-.61c.62.14,1.25.24,1.86.39,1,.25,1.27.55,1.29,1.62,0,.33,0,.66,0,1a10.74,10.74,0,0,1-1.69,6.23,2.31,2.31,0,0,1-1.18.91l7.55,9.75h42.69s2.06-.26,2.77-1.63c.46-.87.29-2.06-.51-3.54C106.7,91.51,59.39,5,58.29,3A3.07,3.07,0,0,0,56,1.34h0C54.57,1.34,53.41,3,53.4,3,53,3.86,5,91.47,2.1,96.93c-.79,1.48-1,2.67-.51,3.54.72,1.38,2.83,1.64,2.85,1.64H47.06l7.68-9.79A20,20,0,0,1,51.5,91.2C50.67,90.87,49.85,90.51,49,90.16ZM59.49,68.63a8.69,8.69,0,0,0-2.81,2.72c-.1.15-.17.42-.39.32s-.07-.33,0-.5a6,6,0,0,1,6.09-4.41,4,4,0,0,1,1.3.12c.15,0,.4,0,.39.21s-.27.22-.45.22A8.57,8.57,0,0,0,59.49,68.63Zm-1.23-2.27a6.08,6.08,0,0,1,2.19-3.92,6.92,6.92,0,0,1,5-1.31c.19,0,.42,0,.42.27s-.25.24-.42.28a13.35,13.35,0,0,0-5.44,2.71C59.37,65,58.92,65.74,58.26,66.36Zm7.63,23.49a13.78,13.78,0,0,1-6.13,2.4c-.27,0-.57.14-.78-.15s0-.53.14-.77a12.33,12.33,0,0,0,1.42-6,9.13,9.13,0,0,0-.18-1.85,1.09,1.09,0,0,1,0-.62c.35-.84,2.48-1.5,3.23-1a8.61,8.61,0,0,1,2.3,2.82c.32.55.54,1.15.86,1.7A2.46,2.46,0,0,1,65.89,89.85Zm5.92-20.17c.75-.81,1.59-.61,2,.47a7,7,0,0,1,.2,2.37,14.65,14.65,0,0,1-1.33,6.58,3.85,3.85,0,0,1-.24.5c-.18.27-.26.7-.62.72s-.37-.43-.52-.68a3.07,3.07,0,0,0-1.68-1.43.59.59,0,0,1-.46-.8,33.52,33.52,0,0,1,2.08-6.86A3.46,3.46,0,0,1,71.81,69.68Zm-3.07-.06a1.7,1.7,0,0,1,.35-.84.81.81,0,0,1,1.16-.31c.47.26,1,.54.81,1.22-.64,1.8-1.32,3.58-2,5.36a.21.21,0,0,1-.22.14s-.1-.06-.1-.09C68.76,73.27,68.55,71.44,68.74,69.62Zm2.43,11.91a9.16,9.16,0,0,1-2.29,5.19.84.84,0,0,1-1.45-.25A14.76,14.76,0,0,0,64.56,82a1,1,0,0,1,.06-1.55,7.11,7.11,0,0,1,3.12-1.87A2.77,2.77,0,0,1,71.17,81.53ZM67.43,55.8c0,.25-.19.21-.34.24a11.47,11.47,0,0,0-4.52,1.68A7.62,7.62,0,0,0,60,60.46a.93.93,0,0,1-.46.51c.72-4,3.74-5.91,7.56-5.35C67.22,55.64,67.41,55.64,67.43,55.8Zm-25,11a40.12,40.12,0,0,1,4.7-9.76c2.21-3.59,4.44-7.17,6.66-10.75a2.59,2.59,0,0,1,.84-1l-1.19,4.12A4.81,4.81,0,0,0,55,47.84c1.09-1.43,2.13-2.88,3.19-4.32.12-.17.23-.42.47-.38s.22.34.28.53a31.92,31.92,0,0,1,1,5.11,11.73,11.73,0,0,0,1.77-2.72c2.68-6,1.62-11.66-2-16.91A22.17,22.17,0,0,0,51,21.6a8.45,8.45,0,0,0-1-.43c-1.09-.38-1.22-.34-1.79.7a11,11,0,0,0-1.1,4.49c0,.18,0,.38,0,.56a.41.41,0,0,1-.5.37c-.3,0-.41-.19-.39-.47a12.4,12.4,0,0,1,1.32-5.45c.08-.13.26-.27.15-.43s-.35-.12-.52-.07A3.15,3.15,0,0,0,45,22.92a12.77,12.77,0,0,0-.88,4,5.51,5.51,0,0,1-.06.57.39.39,0,0,1-.48.3.34.34,0,0,1-.34-.37c.08-2.29.32-4.55,1.94-6.35a3.64,3.64,0,0,1,3-1.09,1.09,1.09,0,0,0,.62,0c1.91-1,3.74-.43,5.49.37a23,23,0,0,1,8.18,6.7A18.31,18.31,0,0,1,66.2,34a14,14,0,0,1-1,9.37,24.42,24.42,0,0,1-4.82,7,3.27,3.27,0,0,0-.93,2,18.17,18.17,0,0,1-1.18,4.27c0,.13-.06.27-.11.44.47-.11.59-.59,1-.73.2.66-.16,1.24-.24,1.84a34.85,34.85,0,0,1-1.72,7.68,27.47,27.47,0,0,1-1.89,4.26A5.35,5.35,0,0,1,51.19,73a7.41,7.41,0,0,1-3.3-.57,19.33,19.33,0,0,1-4.43-2.61A2.41,2.41,0,0,1,42.46,66.82Zm-1.77,11a15.42,15.42,0,0,1-.11-2.25,14,14,0,0,1,.79-5.06c.28-.8.59-.87,1.22-.31a14.38,14.38,0,0,0,5.53,3.29,7.47,7.47,0,0,0,4.51.06c.58-.19.84,0,.82.57,0,1.15-.09,2.3-.21,3.45a1.86,1.86,0,0,1-1.41,1.6,16.39,16.39,0,0,1-9.73.24A1.87,1.87,0,0,1,40.69,77.86ZM47.3,88.54a2.93,2.93,0,0,1-2-1,17.3,17.3,0,0,1-3.77-5.84,1.91,1.91,0,0,1-.12-.47c-.1-.85.22-1.15,1.06-1a19.14,19.14,0,0,0,3.55.54,14.46,14.46,0,0,0,6.19-1.2c.89-.38,1.13-.3,1.74.46.3.37.6.73.89,1.1A1.32,1.32,0,0,1,54.94,83a17.06,17.06,0,0,1-6.43,5.27,6.78,6.78,0,0,1-.87.28A2.09,2.09,0,0,1,47.3,88.54Z"/><path class="cls-3" d="M53,54.6a1.33,1.33,0,0,0,1.55-1.33,1.49,1.49,0,0,0-1.5-1.46,1.36,1.36,0,0,0-1.45,1.38A1.32,1.32,0,0,0,53,54.6Z"/><path class="cls-4" d="M62.94,45.81c.2-.32.41-.64.59-1,2.56-4.59,3.06-9.27.49-14a23.9,23.9,0,0,0-8.44-8.94,10.64,10.64,0,0,0-4.38-1.7,1.9,1.9,0,0,0-1.14.17c.58.25,1.06.42,1.52.65A24,24,0,0,1,61,29.63a17.85,17.85,0,0,1,2.77,12.82,21.15,21.15,0,0,1-1.11,3.61A2.12,2.12,0,0,0,62.94,45.81Z"/><path class="cls-5" d="M58.86,2.65c-3-4.45-6,0-6,0S4.47,91.09,1.51,96.61s2.85,6.16,2.85,6.16h43l8.13-10.35c-.26,0-.52-.06-.77-.11l-7.68,9.79H4.44s-2.13-.26-2.85-1.64c-.46-.87-.28-2.06.51-3.54C5,91.47,53,3.86,53.4,3c0,0,1.17-1.68,2.56-1.68h0A3.07,3.07,0,0,1,58.29,3c1.1,2,48.41,88.51,51.31,93.93.8,1.48,1,2.67.51,3.54-.71,1.37-2.8,1.63-2.77,1.63H64.65L57.1,92.35a2.49,2.49,0,0,1-.74.13l8,10.29h43s5.81-.64,2.85-6.16S58.86,2.65,58.86,2.65Z"/><path class="cls-6" d="M55.51,92.42a6.8,6.8,0,0,0,.8.07h0l-.45-.57Z"/><path class="cls-7" d="M55.51,92.42a6.8,6.8,0,0,0,.8.07h0l-.45-.57Z"/><path class="cls-8" d="M31.3,105.36c0-.18-.2-.49-.32-.49-1.55,0-3.1,0-4.73,0v24.32l-.21.05c-.13-.3-.28-.59-.39-.89q-4.12-10.47-8.22-20.94a1.14,1.14,0,0,0-1.29-.9,29.36,29.36,0,0,1-3.25,0,1.19,1.19,0,0,0-1.37.91c-2.84,7.24-5.73,14.47-8.6,21.7-.09.23-.16.47-.25.74A1.18,1.18,0,0,0,3,130c1.6,0,3.19,0,4.78,0,.24,0,.57-.34.68-.6.44-1.1.83-2.23,1.2-3.36a.89.89,0,0,1,1-.73q3.66,0,7.34,0a.91.91,0,0,1,1,.74c.35,1,.8,2,1.11,3,.23.76.64,1,1.42,1,2.88,0,5.75,0,8.63,0,1.18,0,1.19,0,1.19-1.23V106.55A7.85,7.85,0,0,0,31.3,105.36ZM11.46,120.82c.94-2.7,1.87-5.34,2.79-8h.26c.9,2.63,1.8,5.26,2.75,8Z"/><path class="cls-9" d="M66.11,117.91c-.33-2.25-1.45-4.07-3.8-4.67a5.56,5.56,0,0,0-6.23,2.05,5.41,5.41,0,0,1-.45.52A5,5,0,0,0,51,113a5.74,5.74,0,0,0-4.83,2.62,4.83,4.83,0,0,1-.1-1.39c0-.54-.17-.76-.73-.75q-1.71.06-3.42,0c-.58,0-.72.24-.72.77q0,7.47,0,14.94c0,.61.23.79.81.78,1.11,0,2.22,0,3.33,0,.7,0,.95-.19.94-.91,0-2.54-.08-5.07,0-7.6a8.67,8.67,0,0,1,.72-3,2.05,2.05,0,0,1,2.31-1.09A2,2,0,0,1,51,119a5.73,5.73,0,0,1,.19,1.43c0,2.84,0,5.69,0,8.54,0,.85.27,1.07,1.06,1a28.77,28.77,0,0,1,3.08,0c.71,0,.93-.2.92-.91,0-2.65,0-5.3,0-8a4.28,4.28,0,0,1,1-3,2.29,2.29,0,0,1,2.33-.71,2.06,2.06,0,0,1,1.53,1.67,7.86,7.86,0,0,1,.19,1.6q0,4.23,0,8.46c0,.62.16.87.81.84,1.14,0,2.28,0,3.41,0,.65,0,.83-.21.82-.84,0-2.19,0-4.38,0-6.58A34.54,34.54,0,0,0,66.11,117.91Z"/><path class="cls-10" d="M83.14,123.19c.63,0,.88-.19.83-.82-.09-1-.06-1.94-.23-2.89A7.43,7.43,0,0,0,77.47,113c-4-.46-7.28,1.26-8.84,4.56a10,10,0,0,0-.83,5.33,7.74,7.74,0,0,0,4.27,6.56,9.4,9.4,0,0,0,8,.29,6.7,6.7,0,0,0,3.26-2.73l-3.41-2.27a4.29,4.29,0,0,1-5.17,1.31,3.21,3.21,0,0,1-2.17-2.92h1.06C76.81,123.17,80,123.16,83.14,123.19Zm-7-6.65a3,3,0,0,1,3.17,3.29H72.68A3.34,3.34,0,0,1,76.16,116.54Z"/><path class="cls-11" d="M112.43,124.68a65,65,0,0,0-.36-6.55c-.32-2.34-1.51-4.21-4-4.8a10.18,10.18,0,0,0-9,1.73c-.23.18-.43.41-.68.64.86,1,1.64,1.85,2.48,2.78.37-.26.62-.44.88-.61a5.28,5.28,0,0,1,3.37-1,2.46,2.46,0,0,1,2.56,2.14c0,.46,0,.69-.56.7-.9,0-1.81.07-2.72.17a10.22,10.22,0,0,0-4.82,1.53,4.87,4.87,0,0,0-.11,7.82,6.39,6.39,0,0,0,4.79,1.05,5.14,5.14,0,0,0,3.52-2.16,6.46,6.46,0,0,1,.1.95c-.06.7.21,1,.93.93,1-.05,2,0,3,0,.51,0,.69-.19.68-.71C112.43,127.75,112.49,126.22,112.43,124.68Zm-9,2a1.69,1.69,0,0,1-.67-2.92c1.38-1.19,3.11-1,4.78-1,.14,0,.28.55.42.85A3.35,3.35,0,0,1,103.41,126.69Z"/><path class="cls-12" d="M90.16,117a3,3,0,0,1,1.8-.23A21.31,21.31,0,0,1,94.85,118c.76-.84,1.63-1.8,2.5-2.74-2.37-2.82-8.49-3.07-11.11-.52a4.77,4.77,0,0,0,1.61,8c.45.18.92.29,1.38.44.81.26,1.63.51,2.42.81a1.23,1.23,0,0,1,.77,1.3,1.11,1.11,0,0,1-.91,1.18,4.09,4.09,0,0,1-2,.08,24.12,24.12,0,0,1-3-1.47L83.89,128c2.61,2.77,8.21,3.33,11.24,1.29,2.64-1.78,3.26-6.75-.57-8.53a22.8,22.8,0,0,0-2.4-.85,11,11,0,0,1-2-.67,1.49,1.49,0,0,1-.72-1.09A1.46,1.46,0,0,1,90.16,117Z"/><path class="cls-13" d="M38.8,113.53c-1.6,0-3.08,0-4.55,0-.17,0-.45.45-.45.69,0,5,0,10,0,15,0,.59.23.74.76.73,1.1,0,2.22-.05,3.32,0,.76,0,1-.22,1-1,0-4.58,0-9.17,0-13.75Z"/><path class="cls-14" d="M36.29,105.17a2.94,2.94,0,0,0,0,5.87,2.9,2.9,0,0,0,2.86-3A2.84,2.84,0,0,0,36.29,105.17Z"/></g></g></svg>